<?xml version="1.0" encoding="UTF-8" standalone="no"?>
<!DOCTYPE svg PUBLIC "-//W3C//DTD SVG 1.1//EN"
 "http://www.w3.org/Graphics/SVG/1.1/DTD/svg11.dtd">
<!-- Generated by graphviz version 2.40.1 (20161225.0304)
 -->
<!-- Title: G Pages: 1 -->
<svg width="675pt" height="78pt"
 viewBox="0.00 0.00 675.00 78.00" xmlns="http://www.w3.org/2000/svg" xmlns:xlink="http://www.w3.org/1999/xlink">
<g id="graph0" class="graph" transform="scale(1 1) rotate(0) translate(4 74)">
<title>G</title>
<polygon fill="#ffffff" stroke="transparent" points="-4,4 -4,-74 671,-74 671,4 -4,4"/>
<!-- DISK -->
<g id="node1" class="node">
<title>DISK</title>
<polygon fill="none" stroke="#000000" points=".5,-50 .5,-70 155.5,-70 155.5,-50 .5,-50"/>
<text text-anchor="start" x="5.5" y="-57.8" font-family="Verdana" font-size="9.00" fill="#000000">/home/archivos/fase2/Disco1.dk</text>
<polygon fill="none" stroke="#000000" points=".5,0 .5,-50 155.5,-50 155.5,0 .5,0"/>
<text text-anchor="start" x="68" y="-22.8" font-family="Verdana" font-size="9.00" fill="#000000">MBR</text>
<polygon fill="none" stroke="#000000" points="155.5,0 155.5,-50 279.5,-50 279.5,0 155.5,0"/>
<text text-anchor="start" x="160.5" y="-22.8" font-family="Verdana" font-size="9.00" fill="#000000">Particion P 33.333332 %</text>
<polygon fill="none" stroke="#000000" points="279.5,0 279.5,-50 403.5,-50 403.5,0 279.5,0"/>
<text text-anchor="start" x="284.5" y="-22.8" font-family="Verdana" font-size="9.00" fill="#000000">Particion P 20.000000 %</text>
<polygon fill="none" stroke="#000000" points="403.5,0 403.5,-50 635.5,-50 635.5,0 403.5,0"/>
<polygon fill="none" stroke="#000000" points="411.5,-26 411.5,-42 518.5,-42 518.5,-26 411.5,-26"/>
<text text-anchor="start" x="422" y="-31.8" font-family="Verdana" font-size="9.00" fill="#000000">Particion Extendida</text>
<polygon fill="none" stroke="#000000" points="411.5,-8 411.5,-24 518.5,-24 518.5,-8 411.5,-8"/>
<text text-anchor="start" x="414.5" y="-13.8" font-family="Verdana" font-size="9.00" fill="#000000">Partsd4 50.000000 %</text>
<polygon fill="none" stroke="#000000" points="520.5,-8 520.5,-24 627.5,-24 627.5,-8 520.5,-8"/>
<text text-anchor="start" x="523.5" y="-13.8" font-family="Verdana" font-size="9.00" fill="#000000">Partsd5 25.000000 %</text>
<polygon fill="none" stroke="#000000" points="408.5,-5 408.5,-45 630.5,-45 630.5,-5 408.5,-5"/>
<polygon fill="none" stroke="#000000" points="635.5,0 635.5,-50 667.5,-50 667.5,0 635.5,0"/>
<text text-anchor="start" x="640.5" y="-22.8" font-family="Verdana" font-size="9.00" fill="#000000">Libre</text>
</g>
</g>
</svg>
