<?xml version="1.0" encoding="UTF-8" standalone="no"?>
<!DOCTYPE svg PUBLIC "-//W3C//DTD SVG 1.1//EN"
 "http://www.w3.org/Graphics/SVG/1.1/DTD/svg11.dtd">
<!-- Generated by graphviz version 2.40.1 (20161225.0304)
 -->
<!-- Title: G Pages: 1 -->
<svg width="594pt" height="542pt"
 viewBox="0.00 0.00 594.00 542.00" xmlns="http://www.w3.org/2000/svg" xmlns:xlink="http://www.w3.org/1999/xlink">
<g id="graph0" class="graph" transform="scale(1 1) rotate(0) translate(4 538)">
<title>G</title>
<polygon fill="#ffffff" stroke="transparent" points="-4,4 -4,-538 590,-538 590,4 -4,4"/>
<!-- MBR -->
<g id="node1" class="node">
<title>MBR</title>
<polygon fill="none" stroke="#000000" points=".5,-297 .5,-317 72.5,-317 72.5,-297 .5,-297"/>
<text text-anchor="start" x="18.5" y="-304.8" font-family="Verdana" font-size="9.00" fill="#000000">Nombre</text>
<polygon fill="none" stroke="#000000" points="72.5,-297 72.5,-317 169.5,-317 169.5,-297 72.5,-297"/>
<text text-anchor="start" x="109.5" y="-304.8" font-family="Verdana" font-size="9.00" fill="#000000">Valor</text>
<polygon fill="none" stroke="#000000" points=".5,-277 .5,-297 72.5,-297 72.5,-277 .5,-277"/>
<text text-anchor="start" x="27" y="-284.8" font-family="Verdana" font-size="9.00" fill="#000000">Size</text>
<polygon fill="none" stroke="#000000" points="72.5,-277 72.5,-297 169.5,-297 169.5,-277 72.5,-277"/>
<text text-anchor="start" x="96.5" y="-284.8" font-family="Verdana" font-size="9.00" fill="#000000">78643200</text>
<polygon fill="none" stroke="#000000" points=".5,-257 .5,-277 72.5,-277 72.5,-257 .5,-257"/>
<text text-anchor="start" x="5.5" y="-264.8" font-family="Verdana" font-size="9.00" fill="#000000">Creation Date</text>
<polygon fill="none" stroke="#000000" points="72.5,-257 72.5,-277 169.5,-277 169.5,-257 72.5,-257"/>
<text text-anchor="start" x="77.5" y="-264.8" font-family="Verdana" font-size="9.00" fill="#000000">10/09/2021 07:43</text>
<polygon fill="none" stroke="#000000" points=".5,-237 .5,-257 72.5,-257 72.5,-237 .5,-237"/>
<text text-anchor="start" x="14.5" y="-244.8" font-family="Verdana" font-size="9.00" fill="#000000">Signature</text>
<polygon fill="none" stroke="#000000" points="72.5,-237 72.5,-257 169.5,-257 169.5,-237 72.5,-237"/>
<text text-anchor="start" x="117.5" y="-244.8" font-family="Verdana" font-size="9.00" fill="#000000">3</text>
<polygon fill="none" stroke="#000000" points=".5,-217 .5,-237 72.5,-237 72.5,-217 .5,-217"/>
<text text-anchor="start" x="30.5" y="-224.8" font-family="Verdana" font-size="9.00" fill="#000000">Fit</text>
<polygon fill="none" stroke="#000000" points="72.5,-217 72.5,-237 169.5,-237 169.5,-217 72.5,-217"/>
<text text-anchor="start" x="118" y="-224.8" font-family="Verdana" font-size="9.00" fill="#000000">F</text>
</g>
<!-- Part0 -->
<g id="node2" class="node">
<title>Part0</title>
<polygon fill="none" stroke="#000000" points="205.5,-514 205.5,-534 245.5,-534 245.5,-514 205.5,-514"/>
<text text-anchor="start" x="210.5" y="-521.8" font-family="Verdana" font-size="9.00" fill="#000000">Status</text>
<polygon fill="none" stroke="#000000" points="245.5,-514 245.5,-534 304.5,-534 304.5,-514 245.5,-514"/>
<text text-anchor="start" x="271.5" y="-521.8" font-family="Verdana" font-size="9.00" fill="#000000">1</text>
<polygon fill="none" stroke="#000000" points="205.5,-494 205.5,-514 245.5,-514 245.5,-494 205.5,-494"/>
<text text-anchor="start" x="214.5" y="-501.8" font-family="Verdana" font-size="9.00" fill="#000000">Type</text>
<polygon fill="none" stroke="#000000" points="245.5,-494 245.5,-514 304.5,-514 304.5,-494 245.5,-494"/>
<text text-anchor="start" x="272" y="-501.8" font-family="Verdana" font-size="9.00" fill="#000000">P</text>
<polygon fill="none" stroke="#000000" points="205.5,-474 205.5,-494 245.5,-494 245.5,-474 205.5,-474"/>
<text text-anchor="start" x="219.5" y="-481.8" font-family="Verdana" font-size="9.00" fill="#000000">Fit</text>
<polygon fill="none" stroke="#000000" points="245.5,-474 245.5,-494 304.5,-494 304.5,-474 245.5,-474"/>
<text text-anchor="start" x="271.5" y="-481.8" font-family="Verdana" font-size="9.00" fill="#000000">B</text>
<polygon fill="none" stroke="#000000" points="205.5,-454 205.5,-474 245.5,-474 245.5,-454 205.5,-454"/>
<text text-anchor="start" x="214" y="-461.8" font-family="Verdana" font-size="9.00" fill="#000000">Start</text>
<polygon fill="none" stroke="#000000" points="245.5,-454 245.5,-474 304.5,-474 304.5,-454 245.5,-454"/>
<text text-anchor="start" x="265.5" y="-461.8" font-family="Verdana" font-size="9.00" fill="#000000">161</text>
<polygon fill="none" stroke="#000000" points="205.5,-434 205.5,-454 245.5,-454 245.5,-434 205.5,-434"/>
<text text-anchor="start" x="216" y="-441.8" font-family="Verdana" font-size="9.00" fill="#000000">Size</text>
<polygon fill="none" stroke="#000000" points="245.5,-434 245.5,-454 304.5,-454 304.5,-434 245.5,-434"/>
<text text-anchor="start" x="250.5" y="-441.8" font-family="Verdana" font-size="9.00" fill="#000000">20971520</text>
<polygon fill="none" stroke="#000000" points="205.5,-414 205.5,-434 245.5,-434 245.5,-414 205.5,-414"/>
<text text-anchor="start" x="212" y="-421.8" font-family="Verdana" font-size="9.00" fill="#000000">Name</text>
<polygon fill="none" stroke="#000000" points="245.5,-414 245.5,-434 304.5,-434 304.5,-414 245.5,-414"/>
<text text-anchor="start" x="262.5" y="-421.8" font-family="Verdana" font-size="9.00" fill="#000000">Part1</text>
</g>
<!-- MBR&#45;&gt;Part0 -->
<g id="edge1" class="edge">
<title>MBR&#45;&gt;Part0</title>
<path fill="none" stroke="#000000" d="M125.6523,-317.1089C147.4787,-343.6859 174.617,-376.7307 198.3505,-405.6297"/>
<polygon fill="#000000" stroke="#000000" points="195.8956,-408.1553 204.947,-413.662 201.3052,-403.7127 195.8956,-408.1553"/>
</g>
<!-- Part1 -->
<g id="node3" class="node">
<title>Part1</title>
<polygon fill="none" stroke="#000000" points="205.5,-376 205.5,-396 245.5,-396 245.5,-376 205.5,-376"/>
<text text-anchor="start" x="210.5" y="-383.8" font-family="Verdana" font-size="9.00" fill="#000000">Status</text>
<polygon fill="none" stroke="#000000" points="245.5,-376 245.5,-396 304.5,-396 304.5,-376 245.5,-376"/>
<text text-anchor="start" x="271.5" y="-383.8" font-family="Verdana" font-size="9.00" fill="#000000">1</text>
<polygon fill="none" stroke="#000000" points="205.5,-356 205.5,-376 245.5,-376 245.5,-356 205.5,-356"/>
<text text-anchor="start" x="214.5" y="-363.8" font-family="Verdana" font-size="9.00" fill="#000000">Type</text>
<polygon fill="none" stroke="#000000" points="245.5,-356 245.5,-376 304.5,-376 304.5,-356 245.5,-356"/>
<text text-anchor="start" x="272" y="-363.8" font-family="Verdana" font-size="9.00" fill="#000000">P</text>
<polygon fill="none" stroke="#000000" points="205.5,-336 205.5,-356 245.5,-356 245.5,-336 205.5,-336"/>
<text text-anchor="start" x="219.5" y="-343.8" font-family="Verdana" font-size="9.00" fill="#000000">Fit</text>
<polygon fill="none" stroke="#000000" points="245.5,-336 245.5,-356 304.5,-356 304.5,-336 245.5,-336"/>
<text text-anchor="start" x="271.5" y="-343.8" font-family="Verdana" font-size="9.00" fill="#000000">B</text>
<polygon fill="none" stroke="#000000" points="205.5,-316 205.5,-336 245.5,-336 245.5,-316 205.5,-316"/>
<text text-anchor="start" x="214" y="-323.8" font-family="Verdana" font-size="9.00" fill="#000000">Start</text>
<polygon fill="none" stroke="#000000" points="245.5,-316 245.5,-336 304.5,-336 304.5,-316 245.5,-316"/>
<text text-anchor="start" x="250.5" y="-323.8" font-family="Verdana" font-size="9.00" fill="#000000">20971682</text>
<polygon fill="none" stroke="#000000" points="205.5,-296 205.5,-316 245.5,-316 245.5,-296 205.5,-296"/>
<text text-anchor="start" x="216" y="-303.8" font-family="Verdana" font-size="9.00" fill="#000000">Size</text>
<polygon fill="none" stroke="#000000" points="245.5,-296 245.5,-316 304.5,-316 304.5,-296 245.5,-296"/>
<text text-anchor="start" x="250.5" y="-303.8" font-family="Verdana" font-size="9.00" fill="#000000">15728640</text>
<polygon fill="none" stroke="#000000" points="205.5,-276 205.5,-296 245.5,-296 245.5,-276 205.5,-276"/>
<text text-anchor="start" x="212" y="-283.8" font-family="Verdana" font-size="9.00" fill="#000000">Name</text>
<polygon fill="none" stroke="#000000" points="245.5,-276 245.5,-296 304.5,-296 304.5,-276 245.5,-276"/>
<text text-anchor="start" x="262.5" y="-283.8" font-family="Verdana" font-size="9.00" fill="#000000">Part2</text>
</g>
<!-- MBR&#45;&gt;Part1 -->
<g id="edge2" class="edge">
<title>MBR&#45;&gt;Part1</title>
<path fill="none" stroke="#000000" d="M169.002,-301.2979C177.8415,-304.8857 186.6883,-308.4764 195.1598,-311.9149"/>
<polygon fill="#000000" stroke="#000000" points="193.9624,-315.2061 204.5446,-315.724 196.5951,-308.72 193.9624,-315.2061"/>
</g>
<!-- EXT -->
<g id="node4" class="node">
<title>EXT</title>
<polygon fill="none" stroke="#000000" points="205.5,-238 205.5,-258 245.5,-258 245.5,-238 205.5,-238"/>
<text text-anchor="start" x="210.5" y="-245.8" font-family="Verdana" font-size="9.00" fill="#000000">Status</text>
<polygon fill="none" stroke="#000000" points="245.5,-238 245.5,-258 304.5,-258 304.5,-238 245.5,-238"/>
<text text-anchor="start" x="271.5" y="-245.8" font-family="Verdana" font-size="9.00" fill="#000000">1</text>
<polygon fill="none" stroke="#000000" points="205.5,-218 205.5,-238 245.5,-238 245.5,-218 205.5,-218"/>
<text text-anchor="start" x="214.5" y="-225.8" font-family="Verdana" font-size="9.00" fill="#000000">Type</text>
<polygon fill="none" stroke="#000000" points="245.5,-218 245.5,-238 304.5,-238 304.5,-218 245.5,-218"/>
<text text-anchor="start" x="271.5" y="-225.8" font-family="Verdana" font-size="9.00" fill="#000000">E</text>
<polygon fill="none" stroke="#000000" points="205.5,-198 205.5,-218 245.5,-218 245.5,-198 205.5,-198"/>
<text text-anchor="start" x="219.5" y="-205.8" font-family="Verdana" font-size="9.00" fill="#000000">Fit</text>
<polygon fill="none" stroke="#000000" points="245.5,-198 245.5,-218 304.5,-218 304.5,-198 245.5,-198"/>
<text text-anchor="start" x="271.5" y="-205.8" font-family="Verdana" font-size="9.00" fill="#000000">B</text>
<polygon fill="none" stroke="#000000" points="205.5,-178 205.5,-198 245.5,-198 245.5,-178 205.5,-178"/>
<text text-anchor="start" x="214" y="-185.8" font-family="Verdana" font-size="9.00" fill="#000000">Start</text>
<polygon fill="none" stroke="#000000" points="245.5,-178 245.5,-198 304.5,-198 304.5,-178 245.5,-178"/>
<text text-anchor="start" x="250.5" y="-185.8" font-family="Verdana" font-size="9.00" fill="#000000">36700323</text>
<polygon fill="none" stroke="#000000" points="205.5,-158 205.5,-178 245.5,-178 245.5,-158 205.5,-158"/>
<text text-anchor="start" x="216" y="-165.8" font-family="Verdana" font-size="9.00" fill="#000000">Size</text>
<polygon fill="none" stroke="#000000" points="245.5,-158 245.5,-178 304.5,-178 304.5,-158 245.5,-158"/>
<text text-anchor="start" x="250.5" y="-165.8" font-family="Verdana" font-size="9.00" fill="#000000">20971520</text>
<polygon fill="none" stroke="#000000" points="205.5,-138 205.5,-158 245.5,-158 245.5,-138 205.5,-138"/>
<text text-anchor="start" x="212" y="-145.8" font-family="Verdana" font-size="9.00" fill="#000000">Name</text>
<polygon fill="none" stroke="#000000" points="245.5,-138 245.5,-158 304.5,-158 304.5,-138 245.5,-138"/>
<text text-anchor="start" x="262.5" y="-145.8" font-family="Verdana" font-size="9.00" fill="#000000">Part3</text>
</g>
<!-- MBR&#45;&gt;EXT -->
<g id="edge3" class="edge">
<title>MBR&#45;&gt;EXT</title>
<path fill="none" stroke="#000000" d="M169.002,-232.7021C177.8415,-229.1143 186.6883,-225.5236 195.1598,-222.0851"/>
<polygon fill="#000000" stroke="#000000" points="196.5951,-225.28 204.5446,-218.276 193.9624,-218.7939 196.5951,-225.28"/>
</g>
<!-- Part3 -->
<g id="node5" class="node">
<title>Part3</title>
<polygon fill="none" stroke="#000000" points="224.5,-100 224.5,-120 264.5,-120 264.5,-100 224.5,-100"/>
<text text-anchor="start" x="229.5" y="-107.8" font-family="Verdana" font-size="9.00" fill="#000000">Status</text>
<polygon fill="none" stroke="#000000" points="264.5,-100 264.5,-120 284.5,-120 284.5,-100 264.5,-100"/>
<text text-anchor="start" x="271" y="-107.8" font-family="Verdana" font-size="9.00" fill="#000000">0</text>
<polygon fill="none" stroke="#000000" points="224.5,-80 224.5,-100 264.5,-100 264.5,-80 224.5,-80"/>
<text text-anchor="start" x="233.5" y="-87.8" font-family="Verdana" font-size="9.00" fill="#000000">Type</text>
<polygon fill="none" stroke="#000000" points="264.5,-80 264.5,-100 284.5,-100 284.5,-80 264.5,-80"/>
<text text-anchor="start" x="271.5" y="-87.8" font-family="Verdana" font-size="9.00" fill="#000000">P</text>
<polygon fill="none" stroke="#000000" points="224.5,-60 224.5,-80 264.5,-80 264.5,-60 224.5,-60"/>
<text text-anchor="start" x="238.5" y="-67.8" font-family="Verdana" font-size="9.00" fill="#000000">Fit</text>
<polygon fill="none" stroke="#000000" points="264.5,-60 264.5,-80 284.5,-80 284.5,-60 264.5,-60"/>
<text text-anchor="start" x="269.5" y="-67.8" font-family="Verdana" font-size="9.00" fill="#000000">W</text>
<polygon fill="none" stroke="#000000" points="224.5,-40 224.5,-60 264.5,-60 264.5,-40 224.5,-40"/>
<text text-anchor="start" x="233" y="-47.8" font-family="Verdana" font-size="9.00" fill="#000000">Start</text>
<polygon fill="none" stroke="#000000" points="264.5,-40 264.5,-60 284.5,-60 284.5,-40 264.5,-40"/>
<text text-anchor="start" x="269.5" y="-47.8" font-family="Verdana" font-size="9.00" fill="#000000">&#45;1</text>
<polygon fill="none" stroke="#000000" points="224.5,-20 224.5,-40 264.5,-40 264.5,-20 224.5,-20"/>
<text text-anchor="start" x="235" y="-27.8" font-family="Verdana" font-size="9.00" fill="#000000">Size</text>
<polygon fill="none" stroke="#000000" points="264.5,-20 264.5,-40 284.5,-40 284.5,-20 264.5,-20"/>
<text text-anchor="start" x="269.5" y="-27.8" font-family="Verdana" font-size="9.00" fill="#000000">&#45;1</text>
<polygon fill="none" stroke="#000000" points="224.5,0 224.5,-20 264.5,-20 264.5,0 224.5,0"/>
<text text-anchor="start" x="231" y="-7.8" font-family="Verdana" font-size="9.00" fill="#000000">Name</text>
<polygon fill="none" stroke="#000000" points="264.5,0 264.5,-20 284.5,-20 284.5,0 264.5,0"/>
<text text-anchor="start" x="272.5" y="-7.8" font-family="Verdana" font-size="9.00" fill="#000000">&#45;</text>
</g>
<!-- MBR&#45;&gt;Part3 -->
<g id="edge4" class="edge">
<title>MBR&#45;&gt;Part3</title>
<path fill="none" stroke="#000000" d="M125.6523,-216.8911C153.7347,-182.6966 190.6103,-137.7951 217.7139,-104.7925"/>
<polygon fill="#000000" stroke="#000000" points="220.7409,-106.6214 224.3827,-96.6722 215.3313,-102.1788 220.7409,-106.6214"/>
</g>
<!-- EBR1 -->
<g id="node6" class="node">
<title>EBR1</title>
<polygon fill="none" stroke="#000000" points="340.5,-248 340.5,-268 386.5,-268 386.5,-248 340.5,-248"/>
<text text-anchor="start" x="345.5" y="-255.8" font-family="Verdana" font-size="9.00" fill="#000000">Nombre</text>
<polygon fill="none" stroke="#000000" points="386.5,-248 386.5,-268 445.5,-268 445.5,-248 386.5,-248"/>
<text text-anchor="start" x="404.5" y="-255.8" font-family="Verdana" font-size="9.00" fill="#000000">Valor</text>
<polygon fill="none" stroke="#000000" points="340.5,-228 340.5,-248 386.5,-248 386.5,-228 340.5,-228"/>
<text text-anchor="start" x="348.5" y="-235.8" font-family="Verdana" font-size="9.00" fill="#000000">Status</text>
<polygon fill="none" stroke="#000000" points="386.5,-228 386.5,-248 445.5,-248 445.5,-228 386.5,-228"/>
<text text-anchor="start" x="412.5" y="-235.8" font-family="Verdana" font-size="9.00" fill="#000000">1</text>
<polygon fill="none" stroke="#000000" points="340.5,-208 340.5,-228 386.5,-228 386.5,-208 340.5,-208"/>
<text text-anchor="start" x="357.5" y="-215.8" font-family="Verdana" font-size="9.00" fill="#000000">Fit</text>
<polygon fill="none" stroke="#000000" points="386.5,-208 386.5,-228 445.5,-228 445.5,-208 386.5,-208"/>
<text text-anchor="start" x="412.5" y="-215.8" font-family="Verdana" font-size="9.00" fill="#000000">B</text>
<polygon fill="none" stroke="#000000" points="340.5,-188 340.5,-208 386.5,-208 386.5,-188 340.5,-188"/>
<text text-anchor="start" x="352" y="-195.8" font-family="Verdana" font-size="9.00" fill="#000000">Start</text>
<polygon fill="none" stroke="#000000" points="386.5,-188 386.5,-208 445.5,-208 445.5,-188 386.5,-188"/>
<text text-anchor="start" x="391.5" y="-195.8" font-family="Verdana" font-size="9.00" fill="#000000">36700360</text>
<polygon fill="none" stroke="#000000" points="340.5,-168 340.5,-188 386.5,-188 386.5,-168 340.5,-168"/>
<text text-anchor="start" x="354" y="-175.8" font-family="Verdana" font-size="9.00" fill="#000000">Size</text>
<polygon fill="none" stroke="#000000" points="386.5,-168 386.5,-188 445.5,-188 445.5,-168 386.5,-168"/>
<text text-anchor="start" x="391.5" y="-175.8" font-family="Verdana" font-size="9.00" fill="#000000">10485760</text>
<polygon fill="none" stroke="#000000" points="340.5,-148 340.5,-168 386.5,-168 386.5,-148 340.5,-148"/>
<text text-anchor="start" x="352.5" y="-155.8" font-family="Verdana" font-size="9.00" fill="#000000">Next</text>
<polygon fill="none" stroke="#000000" points="386.5,-148 386.5,-168 445.5,-168 445.5,-148 386.5,-148"/>
<text text-anchor="start" x="391.5" y="-155.8" font-family="Verdana" font-size="9.00" fill="#000000">47186157</text>
<polygon fill="none" stroke="#000000" points="340.5,-128 340.5,-148 386.5,-148 386.5,-128 340.5,-128"/>
<text text-anchor="start" x="350" y="-135.8" font-family="Verdana" font-size="9.00" fill="#000000">Name</text>
<polygon fill="none" stroke="#000000" points="386.5,-128 386.5,-148 445.5,-148 445.5,-128 386.5,-128"/>
<text text-anchor="start" x="403.5" y="-135.8" font-family="Verdana" font-size="9.00" fill="#000000">Part4</text>
</g>
<!-- EXT&#45;&gt;EBR1 -->
<g id="edge5" class="edge">
<title>EXT&#45;&gt;EBR1</title>
<path fill="none" stroke="#000000" d="M304.3212,-198C312.5542,-198 321.1831,-198 329.6856,-198"/>
<polygon fill="#000000" stroke="#000000" points="329.9591,-201.5001 339.9591,-198 329.959,-194.5001 329.9591,-201.5001"/>
</g>
<!-- EBR2 -->
<g id="node7" class="node">
<title>EBR2</title>
<polygon fill="none" stroke="#000000" points="481.5,-248 481.5,-268 527.5,-268 527.5,-248 481.5,-248"/>
<text text-anchor="start" x="486.5" y="-255.8" font-family="Verdana" font-size="9.00" fill="#000000">Nombre</text>
<polygon fill="none" stroke="#000000" points="527.5,-248 527.5,-268 586.5,-268 586.5,-248 527.5,-248"/>
<text text-anchor="start" x="545.5" y="-255.8" font-family="Verdana" font-size="9.00" fill="#000000">Valor</text>
<polygon fill="none" stroke="#000000" points="481.5,-228 481.5,-248 527.5,-248 527.5,-228 481.5,-228"/>
<text text-anchor="start" x="489.5" y="-235.8" font-family="Verdana" font-size="9.00" fill="#000000">Status</text>
<polygon fill="none" stroke="#000000" points="527.5,-228 527.5,-248 586.5,-248 586.5,-228 527.5,-228"/>
<text text-anchor="start" x="553.5" y="-235.8" font-family="Verdana" font-size="9.00" fill="#000000">1</text>
<polygon fill="none" stroke="#000000" points="481.5,-208 481.5,-228 527.5,-228 527.5,-208 481.5,-208"/>
<text text-anchor="start" x="498.5" y="-215.8" font-family="Verdana" font-size="9.00" fill="#000000">Fit</text>
<polygon fill="none" stroke="#000000" points="527.5,-208 527.5,-228 586.5,-228 586.5,-208 527.5,-208"/>
<text text-anchor="start" x="553.5" y="-215.8" font-family="Verdana" font-size="9.00" fill="#000000">B</text>
<polygon fill="none" stroke="#000000" points="481.5,-188 481.5,-208 527.5,-208 527.5,-188 481.5,-188"/>
<text text-anchor="start" x="493" y="-195.8" font-family="Verdana" font-size="9.00" fill="#000000">Start</text>
<polygon fill="none" stroke="#000000" points="527.5,-188 527.5,-208 586.5,-208 586.5,-188 527.5,-188"/>
<text text-anchor="start" x="532.5" y="-195.8" font-family="Verdana" font-size="9.00" fill="#000000">47186157</text>
<polygon fill="none" stroke="#000000" points="481.5,-168 481.5,-188 527.5,-188 527.5,-168 481.5,-168"/>
<text text-anchor="start" x="495" y="-175.8" font-family="Verdana" font-size="9.00" fill="#000000">Size</text>
<polygon fill="none" stroke="#000000" points="527.5,-168 527.5,-188 586.5,-188 586.5,-168 527.5,-168"/>
<text text-anchor="start" x="535.5" y="-175.8" font-family="Verdana" font-size="9.00" fill="#000000">5242880</text>
<polygon fill="none" stroke="#000000" points="481.5,-148 481.5,-168 527.5,-168 527.5,-148 481.5,-148"/>
<text text-anchor="start" x="493.5" y="-155.8" font-family="Verdana" font-size="9.00" fill="#000000">Next</text>
<polygon fill="none" stroke="#000000" points="527.5,-148 527.5,-168 586.5,-168 586.5,-148 527.5,-148"/>
<text text-anchor="start" x="532.5" y="-155.8" font-family="Verdana" font-size="9.00" fill="#000000">57671807</text>
<polygon fill="none" stroke="#000000" points="481.5,-128 481.5,-148 527.5,-148 527.5,-128 481.5,-128"/>
<text text-anchor="start" x="491" y="-135.8" font-family="Verdana" font-size="9.00" fill="#000000">Name</text>
<polygon fill="none" stroke="#000000" points="527.5,-128 527.5,-148 586.5,-148 586.5,-128 527.5,-128"/>
<text text-anchor="start" x="544.5" y="-135.8" font-family="Verdana" font-size="9.00" fill="#000000">Part5</text>
</g>
<!-- EBR1&#45;&gt;EBR2 -->
<g id="edge6" class="edge">
<title>EBR1&#45;&gt;EBR2</title>
<path fill="none" stroke="#000000" d="M445.0032,-198C453.4446,-198 462.255,-198 470.9046,-198"/>
<polygon fill="#000000" stroke="#000000" points="470.953,-201.5001 480.953,-198 470.9529,-194.5001 470.953,-201.5001"/>
</g>
</g>
</svg>
