<svg xmlns="http://www.w3.org/2000/svg" xmlns:xlink="http://www.w3.org/1999/xlink" width="154pt" height="384" viewBox="0 0 154 288"><g id="graph0" class="graph" transform="scale(1 1) rotate(0) translate(4 284)"><title>G</title><polygon fill="#fff" stroke="transparent" points="-4 4 -4 -284 150 -284 150 4 -4 4"/><g id="node1" class="node"><title>SP</title><polygon fill="none" stroke="#000" points="0 -260 0 -280 93 -280 93 -260 0 -260"/><text x="17" y="-267.8" fill="#000" font-family="Verdana" font-size="9" text-anchor="start">Inodes count</text><polygon fill="none" stroke="#000" points="93 -260 93 -280 146 -280 146 -260 93 -260"/><text x="104" y="-267.8" fill="#000" font-family="Verdana" font-size="9" text-anchor="start">33956</text><polygon fill="none" stroke="#000" points="0 -240 0 -260 93 -260 93 -240 0 -240"/><text x="18" y="-247.8" fill="#000" font-family="Verdana" font-size="9" text-anchor="start">Blocks count</text><polygon fill="none" stroke="#000" points="93 -240 93 -260 146 -260 146 -240 93 -240"/><text x="101" y="-247.8" fill="#000" font-family="Verdana" font-size="9" text-anchor="start">101868</text><polygon fill="none" stroke="#000" points="0 -220 0 -240 93 -240 93 -220 0 -220"/><text x="7" y="-227.8" fill="#000" font-family="Verdana" font-size="9" text-anchor="start">Free blocks count</text><polygon fill="none" stroke="#000" points="93 -220 93 -240 146 -240 146 -220 93 -220"/><text x="101" y="-227.8" fill="#000" font-family="Verdana" font-size="9" text-anchor="start">101864</text><polygon fill="none" stroke="#000" points="0 -200 0 -220 93 -220 93 -200 0 -200"/><text x="6.5" y="-207.8" fill="#000" font-family="Verdana" font-size="9" text-anchor="start">Free inodes count</text><polygon fill="none" stroke="#000" points="93 -200 93 -220 146 -220 146 -200 93 -200"/><text x="104" y="-207.8" fill="#000" font-family="Verdana" font-size="9" text-anchor="start">33954</text><polygon fill="none" stroke="#000" points="0 -180 0 -200 93 -200 93 -180 0 -180"/><text x="23.5" y="-187.8" fill="#000" font-family="Verdana" font-size="9" text-anchor="start">Mnt count</text><polygon fill="none" stroke="#000" points="93 -180 93 -200 146 -200 146 -180 93 -180"/><text x="116" y="-187.8" fill="#000" font-family="Verdana" font-size="9" text-anchor="start">1</text><polygon fill="none" stroke="#000" points="0 -160 0 -180 93 -180 93 -160 0 -160"/><text x="34" y="-167.8" fill="#000" font-family="Verdana" font-size="9" text-anchor="start">Magic</text><polygon fill="none" stroke="#000" points="93 -160 93 -180 146 -180 146 -160 93 -160"/><text x="102" y="-167.8" fill="#000" font-family="Verdana" font-size="9" text-anchor="start">0xEF53</text><polygon fill="none" stroke="#000" points="0 -140 0 -160 93 -160 93 -140 0 -140"/><text x="23.5" y="-147.8" fill="#000" font-family="Verdana" font-size="9" text-anchor="start">Inode size</text><polygon fill="none" stroke="#000" points="93 -140 93 -160 146 -160 146 -140 93 -140"/><text x="110" y="-147.8" fill="#000" font-family="Verdana" font-size="9" text-anchor="start">132</text><polygon fill="none" stroke="#000" points="0 -120 0 -140 93 -140 93 -120 0 -120"/><text x="25" y="-127.8" fill="#000" font-family="Verdana" font-size="9" text-anchor="start">Block size</text><polygon fill="none" stroke="#000" points="93 -120 93 -140 146 -140 146 -120 93 -120"/><text x="113" y="-127.8" fill="#000" font-family="Verdana" font-size="9" text-anchor="start">64</text><polygon fill="none" stroke="#000" points="0 -100 0 -120 93 -120 93 -100 0 -100"/><text x="23" y="-107.8" fill="#000" font-family="Verdana" font-size="9" text-anchor="start">First inode</text><polygon fill="none" stroke="#000" points="93 -100 93 -120 146 -120 146 -100 93 -100"/><text x="116" y="-107.8" fill="#000" font-family="Verdana" font-size="9" text-anchor="start">2</text><polygon fill="none" stroke="#000" points="0 -80 0 -100 93 -100 93 -80 0 -80"/><text x="23.5" y="-87.8" fill="#000" font-family="Verdana" font-size="9" text-anchor="start">First block</text><polygon fill="none" stroke="#000" points="93 -80 93 -100 146 -100 146 -80 93 -80"/><text x="116" y="-87.8" fill="#000" font-family="Verdana" font-size="9" text-anchor="start">3</text><polygon fill="none" stroke="#000" points="0 -60 0 -80 93 -80 93 -60 0 -60"/><text x="5" y="-67.8" fill="#000" font-family="Verdana" font-size="9" text-anchor="start">Bitmap inode start</text><polygon fill="none" stroke="#000" points="93 -60 93 -80 146 -80 146 -60 93 -60"/><text x="110" y="-67.8" fill="#000" font-family="Verdana" font-size="9" text-anchor="start">261</text><polygon fill="none" stroke="#000" points="0 -40 0 -60 93 -60 93 -40 0 -40"/><text x="5.5" y="-47.8" fill="#000" font-family="Verdana" font-size="9" text-anchor="start">Bitmap block start</text><polygon fill="none" stroke="#000" points="93 -40 93 -60 146 -60 146 -40 93 -40"/><text x="104" y="-47.8" fill="#000" font-family="Verdana" font-size="9" text-anchor="start">34217</text><polygon fill="none" stroke="#000" points="0 -20 0 -40 93 -40 93 -20 0 -20"/><text x="21.5" y="-27.8" fill="#000" font-family="Verdana" font-size="9" text-anchor="start">Inode start</text><polygon fill="none" stroke="#000" points="93 -20 93 -40 146 -40 146 -20 93 -20"/><text x="101" y="-27.8" fill="#000" font-family="Verdana" font-size="9" text-anchor="start">136085</text><polygon fill="none" stroke="#000" points="0 0 0 -20 93 -20 93 0 0 0"/><text x="10" y="-7.8" fill="#000" font-family="Verdana" font-size="9" text-anchor="start">Block block start</text><polygon fill="none" stroke="#000" points="93 0 93 -20 146 -20 146 0 93 0"/><text x="98" y="-7.8" fill="#000" font-family="Verdana" font-size="9" text-anchor="start">4618277</text></g></g></svg>