<?xml version="1.0" encoding="UTF-8" standalone="no"?>
<!DOCTYPE svg PUBLIC "-//W3C//DTD SVG 1.1//EN"
 "http://www.w3.org/Graphics/SVG/1.1/DTD/svg11.dtd">
<!-- Generated by graphviz version 2.40.1 (20161225.0304)
 -->
<!-- Title: G Pages: 1 -->
<svg width="1091pt" height="446pt"
 viewBox="0.00 0.00 1091.00 446.00" xmlns="http://www.w3.org/2000/svg" xmlns:xlink="http://www.w3.org/1999/xlink">
<g id="graph0" class="graph" transform="scale(1 1) rotate(0) translate(4 442)">
<title>G</title>
<polygon fill="#ffffff" stroke="transparent" points="-4,4 -4,-442 1087,-442 1087,4 -4,4"/>
<!-- INode231600 -->
<g id="node1" class="node">
<title>INode231600</title>
<polygon fill="#03a9f4" stroke="transparent" points="0,-331 0,-351 164,-351 164,-331 0,-331"/>
<polygon fill="none" stroke="#000000" points="0,-331 0,-351 164,-351 164,-331 0,-331"/>
<text text-anchor="start" x="63" y="-339.8" font-family="Verdana" font-weight="bold" font-size="9.00" fill="#ffffff">INode0</text>
<polygon fill="#b3e5fc" stroke="transparent" points="0,-311 0,-331 164,-331 164,-311 0,-311"/>
<polygon fill="none" stroke="#000000" points="0,-311 0,-331 164,-331 164,-311 0,-311"/>
<text text-anchor="start" x="7" y="-318.8" font-family="Verdana" font-size="9.00" fill="#000000">Append time: 07/09/2021 23:45</text>
<polygon fill="#e1f5fe" stroke="transparent" points="0,-291 0,-311 164,-311 164,-291 0,-291"/>
<polygon fill="none" stroke="#000000" points="0,-291 0,-311 164,-311 164,-291 0,-291"/>
<text text-anchor="start" x="5" y="-298.8" font-family="Verdana" font-size="9.00" fill="#000000">Creation time: 07/09/2021 23:45</text>
<polygon fill="#b3e5fc" stroke="transparent" points="0,-271 0,-291 164,-291 164,-271 0,-271"/>
<polygon fill="none" stroke="#000000" points="0,-271 0,-291 164,-291 164,-271 0,-271"/>
<text text-anchor="start" x="9.5" y="-278.8" font-family="Verdana" font-size="9.00" fill="#000000">Modify time: 07/09/2021 23:45</text>
<polygon fill="#e1f5fe" stroke="transparent" points="0,-251 0,-271 164,-271 164,-251 0,-251"/>
<polygon fill="none" stroke="#000000" points="0,-251 0,-271 164,-271 164,-251 0,-251"/>
<text text-anchor="start" x="47.5" y="-258.8" font-family="Verdana" font-size="9.00" fill="#000000">Type: Directory</text>
<polygon fill="#b3e5fc" stroke="transparent" points="0,-231 0,-251 164,-251 164,-231 0,-231"/>
<polygon fill="none" stroke="#000000" points="0,-231 0,-251 164,-251 164,-231 0,-231"/>
<text text-anchor="start" x="66.5" y="-238.8" font-family="Verdana" font-size="9.00" fill="#000000">Size: 0</text>
<polygon fill="#e1f5fe" stroke="transparent" points="0,-211 0,-231 164,-231 164,-211 0,-211"/>
<polygon fill="none" stroke="#000000" points="0,-211 0,-231 164,-231 164,-211 0,-211"/>
<text text-anchor="start" x="43" y="-218.8" font-family="Verdana" font-size="9.00" fill="#000000">Permissions: 664</text>
<polygon fill="#b3e5fc" stroke="transparent" points="0,-191 0,-211 164,-211 164,-191 0,-191"/>
<polygon fill="none" stroke="#000000" points="0,-191 0,-211 164,-211 164,-191 0,-191"/>
<text text-anchor="start" x="66.5" y="-198.8" font-family="Verdana" font-size="9.00" fill="#000000">UID: 1</text>
<polygon fill="#e1f5fe" stroke="transparent" points="0,-171 0,-191 164,-191 164,-171 0,-171"/>
<polygon fill="none" stroke="#000000" points="0,-171 0,-191 164,-191 164,-171 0,-171"/>
<text text-anchor="start" x="66.5" y="-178.8" font-family="Verdana" font-size="9.00" fill="#000000">GID: 1</text>
<polygon fill="#b3e5fc" stroke="transparent" points="0,-151 0,-171 164,-171 164,-151 0,-151"/>
<polygon fill="none" stroke="#000000" points="0,-151 0,-171 164,-171 164,-151 0,-151"/>
<text text-anchor="start" x="55.5" y="-158.8" font-family="Verdana" font-size="9.00" fill="#000000">Block 1: #1</text>
</g>
<!-- INode231600_bloque_0 -->
<g id="node2" class="node">
<title>INode231600_bloque_0</title>
<polygon fill="#ff6f00" stroke="transparent" points="205,-241 205,-261 252,-261 252,-241 205,-241"/>
<polygon fill="none" stroke="#000000" points="205,-241 205,-261 252,-261 252,-241 205,-241"/>
<text text-anchor="start" x="210" y="-249.8" font-family="Verdana" font-weight="bold" font-size="9.00" fill="#ffffff">Block 1</text>
</g>
<!-- INode231600&#45;&gt;INode231600_bloque_0 -->
<g id="edge1" class="edge">
<title>INode231600&#45;&gt;INode231600_bloque_0</title>
<path fill="none" stroke="#000000" d="M164.387,-251C173.5616,-251 182.5352,-251 190.7148,-251"/>
<polygon fill="#000000" stroke="#000000" points="190.9607,-254.5001 200.9607,-251 190.9606,-247.5001 190.9607,-254.5001"/>
</g>
<!-- INode231600_bloque_0_content_0 -->
<g id="node3" class="node">
<title>INode231600_bloque_0_content_0</title>
<polygon fill="#4caf50" stroke="transparent" points="298,-319 298,-339 398,-339 398,-319 298,-319"/>
<polygon fill="none" stroke="#000000" points="298,-319 298,-339 398,-339 398,-319 298,-319"/>
<text text-anchor="start" x="303" y="-327.8" font-family="Verdana" font-weight="bold" font-size="9.00" fill="#ffffff">Directory Content</text>
<polygon fill="#a5d6a7" stroke="transparent" points="298,-299 298,-319 398,-319 398,-299 298,-299"/>
<polygon fill="none" stroke="#000000" points="298,-299 298,-319 398,-319 398,-299 298,-299"/>
<text text-anchor="start" x="311.5" y="-306.8" font-family="Verdana" font-size="9.00" fill="#000000">Name: users.txt</text>
<polygon fill="#c8e6c9" stroke="transparent" points="298,-279 298,-299 398,-299 398,-279 298,-279"/>
<polygon fill="none" stroke="#000000" points="298,-279 298,-299 398,-299 398,-279 298,-279"/>
<text text-anchor="start" x="328" y="-286.8" font-family="Verdana" font-size="9.00" fill="#000000">INode: 1</text>
</g>
<!-- INode231600_bloque_0&#45;&gt;INode231600_bloque_0_content_0 -->
<g id="edge2" class="edge">
<title>INode231600_bloque_0&#45;&gt;INode231600_bloque_0_content_0</title>
<path fill="none" stroke="#000000" d="M255.2299,-264.1611C265.1605,-268.9609 276.8188,-274.5958 288.4544,-280.2196"/>
<polygon fill="#000000" stroke="#000000" points="287.2209,-283.5108 297.7475,-284.7113 290.2671,-277.2083 287.2209,-283.5108"/>
<text text-anchor="middle" x="276.5" y="-277.8" font-family="Times,serif" font-size="14.00" fill="#000000">1</text>
</g>
<!-- INode231600_bloque_0_content_1 -->
<g id="node5" class="node">
<title>INode231600_bloque_0_content_1</title>
<polygon fill="#4caf50" stroke="transparent" points="298,-222 298,-242 398,-242 398,-222 298,-222"/>
<polygon fill="none" stroke="#000000" points="298,-222 298,-242 398,-242 398,-222 298,-222"/>
<text text-anchor="start" x="303" y="-230.8" font-family="Verdana" font-weight="bold" font-size="9.00" fill="#ffffff">Directory Content</text>
<polygon fill="#a5d6a7" stroke="transparent" points="298,-202 298,-222 398,-222 398,-202 298,-202"/>
<polygon fill="none" stroke="#000000" points="298,-202 298,-222 398,-222 398,-202 298,-202"/>
<text text-anchor="start" x="318.5" y="-209.8" font-family="Verdana" font-size="9.00" fill="#000000">Name: home</text>
<polygon fill="#c8e6c9" stroke="transparent" points="298,-182 298,-202 398,-202 398,-182 298,-182"/>
<polygon fill="none" stroke="#000000" points="298,-182 298,-202 398,-202 398,-182 298,-182"/>
<text text-anchor="start" x="328" y="-189.8" font-family="Verdana" font-size="9.00" fill="#000000">INode: 2</text>
</g>
<!-- INode231600_bloque_0&#45;&gt;INode231600_bloque_0_content_1 -->
<g id="edge4" class="edge">
<title>INode231600_bloque_0&#45;&gt;INode231600_bloque_0_content_1</title>
<path fill="none" stroke="#000000" d="M255.2299,-242.1503C265.0622,-238.9548 276.5881,-235.2089 288.1087,-231.4647"/>
<polygon fill="#000000" stroke="#000000" points="289.319,-234.7516 297.7475,-228.3321 287.1553,-228.0944 289.319,-234.7516"/>
<text text-anchor="middle" x="276.5" y="-239.8" font-family="Times,serif" font-size="14.00" fill="#000000">2</text>
</g>
<!-- INode231732 -->
<g id="node4" class="node">
<title>INode231732</title>
<polygon fill="#03a9f4" stroke="transparent" points="435,-418 435,-438 599,-438 599,-418 435,-418"/>
<polygon fill="none" stroke="#000000" points="435,-418 435,-438 599,-438 599,-418 435,-418"/>
<text text-anchor="start" x="498" y="-426.8" font-family="Verdana" font-weight="bold" font-size="9.00" fill="#ffffff">INode1</text>
<polygon fill="#b3e5fc" stroke="transparent" points="435,-398 435,-418 599,-418 599,-398 435,-398"/>
<polygon fill="none" stroke="#000000" points="435,-398 435,-418 599,-418 599,-398 435,-398"/>
<text text-anchor="start" x="442" y="-405.8" font-family="Verdana" font-size="9.00" fill="#000000">Append time: 07/09/2021 23:45</text>
<polygon fill="#e1f5fe" stroke="transparent" points="435,-378 435,-398 599,-398 599,-378 435,-378"/>
<polygon fill="none" stroke="#000000" points="435,-378 435,-398 599,-398 599,-378 435,-378"/>
<text text-anchor="start" x="440" y="-385.8" font-family="Verdana" font-size="9.00" fill="#000000">Creation time: 07/09/2021 23:45</text>
<polygon fill="#b3e5fc" stroke="transparent" points="435,-358 435,-378 599,-378 599,-358 435,-358"/>
<polygon fill="none" stroke="#000000" points="435,-358 435,-378 599,-378 599,-358 435,-358"/>
<text text-anchor="start" x="444.5" y="-365.8" font-family="Verdana" font-size="9.00" fill="#000000">Modify time: 07/09/2021 23:45</text>
<polygon fill="#e1f5fe" stroke="transparent" points="435,-338 435,-358 599,-358 599,-338 435,-338"/>
<polygon fill="none" stroke="#000000" points="435,-338 435,-358 599,-358 599,-338 435,-338"/>
<text text-anchor="start" x="495.5" y="-345.8" font-family="Verdana" font-size="9.00" fill="#000000">Type: File</text>
<polygon fill="#b3e5fc" stroke="transparent" points="435,-318 435,-338 599,-338 599,-318 435,-318"/>
<polygon fill="none" stroke="#000000" points="435,-318 435,-338 599,-338 599,-318 435,-318"/>
<text text-anchor="start" x="495.5" y="-325.8" font-family="Verdana" font-size="9.00" fill="#000000">Size: 103</text>
<polygon fill="#e1f5fe" stroke="transparent" points="435,-298 435,-318 599,-318 599,-298 435,-298"/>
<polygon fill="none" stroke="#000000" points="435,-298 435,-318 599,-318 599,-298 435,-298"/>
<text text-anchor="start" x="478" y="-305.8" font-family="Verdana" font-size="9.00" fill="#000000">Permissions: 664</text>
<polygon fill="#b3e5fc" stroke="transparent" points="435,-278 435,-298 599,-298 599,-278 435,-278"/>
<polygon fill="none" stroke="#000000" points="435,-278 435,-298 599,-298 599,-278 435,-278"/>
<text text-anchor="start" x="501.5" y="-285.8" font-family="Verdana" font-size="9.00" fill="#000000">UID: 1</text>
<polygon fill="#e1f5fe" stroke="transparent" points="435,-258 435,-278 599,-278 599,-258 435,-258"/>
<polygon fill="none" stroke="#000000" points="435,-258 435,-278 599,-278 599,-258 435,-258"/>
<text text-anchor="start" x="501.5" y="-265.8" font-family="Verdana" font-size="9.00" fill="#000000">GID: 1</text>
<polygon fill="#b3e5fc" stroke="transparent" points="435,-238 435,-258 599,-258 599,-238 435,-238"/>
<polygon fill="none" stroke="#000000" points="435,-238 435,-258 599,-258 599,-238 435,-238"/>
<text text-anchor="start" x="490.5" y="-245.8" font-family="Verdana" font-size="9.00" fill="#000000">Block 1: #2</text>
<polygon fill="#e1f5fe" stroke="transparent" points="435,-218 435,-238 599,-238 599,-218 435,-218"/>
<polygon fill="none" stroke="#000000" points="435,-218 435,-238 599,-238 599,-218 435,-218"/>
<text text-anchor="start" x="490.5" y="-225.8" font-family="Verdana" font-size="9.00" fill="#000000">Block 2: #3</text>
</g>
<!-- INode231600_bloque_0_content_0&#45;&gt;INode231732 -->
<g id="edge3" class="edge">
<title>INode231600_bloque_0_content_0&#45;&gt;INode231732</title>
<path fill="none" stroke="#000000" d="M398.248,-314.6492C406.7509,-315.6051 415.8109,-316.6237 424.9899,-317.6557"/>
<polygon fill="#000000" stroke="#000000" points="424.6478,-321.1392 434.9762,-318.7784 425.4299,-314.183 424.6478,-321.1392"/>
</g>
<!-- INode231732_bloque_0 -->
<g id="node7" class="node">
<title>INode231732_bloque_0</title>
<polygon fill="#ffc107" stroke="transparent" points="642.5,-394 642.5,-414 733.5,-414 733.5,-394 642.5,-394"/>
<polygon fill="none" stroke="#000000" points="642.5,-394 642.5,-414 733.5,-414 733.5,-394 642.5,-394"/>
<text text-anchor="start" x="669.5" y="-402.8" font-family="Verdana" font-weight="bold" font-size="9.00" fill="#ffffff">Block 2</text>
<polygon fill="#fff9c4" stroke="transparent" points="642.5,-334 642.5,-394 733.5,-394 733.5,-334 642.5,-334"/>
<polygon fill="none" stroke="#000000" points="642.5,-334 642.5,-394 733.5,-394 733.5,-334 642.5,-334"/>
<text text-anchor="start" x="669.5" y="-381.8" font-family="Verdana" font-size="9.00" fill="#000000">1,G,root</text>
<text text-anchor="start" x="648.5" y="-371.8" font-family="Verdana" font-size="9.00" fill="#000000">1,U,root,root,123</text>
<text text-anchor="start" x="647.5" y="-361.8" font-family="Verdana" font-size="9.00" fill="#000000">2,U,root,user,123</text>
<text text-anchor="start" x="669.5" y="-351.8" font-family="Verdana" font-size="9.00" fill="#000000">2,G,test</text>
<text text-anchor="start" x="659" y="-341.8" font-family="Verdana" font-size="9.00" fill="#000000">3,G,test2 &#160;&#160;&#160;&#160;</text>
</g>
<!-- INode231732&#45;&gt;INode231732_bloque_0 -->
<g id="edge6" class="edge">
<title>INode231732&#45;&gt;INode231732_bloque_0</title>
<path fill="none" stroke="#000000" d="M599.2535,-350.1916C610.3531,-353.1862 621.5205,-356.1991 632.0018,-359.0269"/>
<polygon fill="#000000" stroke="#000000" points="631.2496,-362.449 641.8161,-361.6747 633.073,-355.6907 631.2496,-362.449"/>
</g>
<!-- INode231732_bloque_1 -->
<g id="node8" class="node">
<title>INode231732_bloque_1</title>
<polygon fill="#ffc107" stroke="transparent" points="636.5,-296 636.5,-316 739.5,-316 739.5,-296 636.5,-296"/>
<polygon fill="none" stroke="#000000" points="636.5,-296 636.5,-316 739.5,-316 739.5,-296 636.5,-296"/>
<text text-anchor="start" x="669.5" y="-304.8" font-family="Verdana" font-weight="bold" font-size="9.00" fill="#ffffff">Block 3</text>
<polygon fill="#fff9c4" stroke="transparent" points="636.5,-246 636.5,-296 739.5,-296 739.5,-246 636.5,-246"/>
<polygon fill="none" stroke="#000000" points="636.5,-246 636.5,-296 739.5,-296 739.5,-246 636.5,-246"/>
<text text-anchor="start" x="641.5" y="-273.8" font-family="Verdana" font-size="9.00" fill="#000000">3,U,test2,daniel,123</text>
<text text-anchor="start" x="648.5" y="-263.8" font-family="Verdana" font-size="9.00" fill="#000000">4,U,test,alex,123</text>
<text text-anchor="start" x="680" y="-253.8" font-family="Verdana" font-size="9.00" fill="#000000"> &#160;&#160;&#160;&#160;</text>
</g>
<!-- INode231732&#45;&gt;INode231732_bloque_1 -->
<g id="edge7" class="edge">
<title>INode231732&#45;&gt;INode231732_bloque_1</title>
<path fill="none" stroke="#000000" d="M599.2535,-305.326C608.2867,-302.8359 617.3649,-300.3334 626.0815,-297.9306"/>
<polygon fill="#000000" stroke="#000000" points="627.0375,-301.2977 635.7477,-295.266 625.1772,-294.5494 627.0375,-301.2977"/>
</g>
<!-- INode231864 -->
<g id="node6" class="node">
<title>INode231864</title>
<polygon fill="#03a9f4" stroke="transparent" points="435,-180 435,-200 599,-200 599,-180 435,-180"/>
<polygon fill="none" stroke="#000000" points="435,-180 435,-200 599,-200 599,-180 435,-180"/>
<text text-anchor="start" x="498" y="-188.8" font-family="Verdana" font-weight="bold" font-size="9.00" fill="#ffffff">INode2</text>
<polygon fill="#b3e5fc" stroke="transparent" points="435,-160 435,-180 599,-180 599,-160 435,-160"/>
<polygon fill="none" stroke="#000000" points="435,-160 435,-180 599,-180 599,-160 435,-160"/>
<text text-anchor="start" x="442" y="-167.8" font-family="Verdana" font-size="9.00" fill="#000000">Append time: 07/09/2021 23:45</text>
<polygon fill="#e1f5fe" stroke="transparent" points="435,-140 435,-160 599,-160 599,-140 435,-140"/>
<polygon fill="none" stroke="#000000" points="435,-140 435,-160 599,-160 599,-140 435,-140"/>
<text text-anchor="start" x="440" y="-147.8" font-family="Verdana" font-size="9.00" fill="#000000">Creation time: 07/09/2021 23:45</text>
<polygon fill="#b3e5fc" stroke="transparent" points="435,-120 435,-140 599,-140 599,-120 435,-120"/>
<polygon fill="none" stroke="#000000" points="435,-120 435,-140 599,-140 599,-120 435,-120"/>
<text text-anchor="start" x="444.5" y="-127.8" font-family="Verdana" font-size="9.00" fill="#000000">Modify time: 07/09/2021 23:45</text>
<polygon fill="#e1f5fe" stroke="transparent" points="435,-100 435,-120 599,-120 599,-100 435,-100"/>
<polygon fill="none" stroke="#000000" points="435,-100 435,-120 599,-120 599,-100 435,-100"/>
<text text-anchor="start" x="482.5" y="-107.8" font-family="Verdana" font-size="9.00" fill="#000000">Type: Directory</text>
<polygon fill="#b3e5fc" stroke="transparent" points="435,-80 435,-100 599,-100 599,-80 435,-80"/>
<polygon fill="none" stroke="#000000" points="435,-80 435,-100 599,-100 599,-80 435,-80"/>
<text text-anchor="start" x="501.5" y="-87.8" font-family="Verdana" font-size="9.00" fill="#000000">Size: 0</text>
<polygon fill="#e1f5fe" stroke="transparent" points="435,-60 435,-80 599,-80 599,-60 435,-60"/>
<polygon fill="none" stroke="#000000" points="435,-60 435,-80 599,-80 599,-60 435,-60"/>
<text text-anchor="start" x="478" y="-67.8" font-family="Verdana" font-size="9.00" fill="#000000">Permissions: 777</text>
<polygon fill="#b3e5fc" stroke="transparent" points="435,-40 435,-60 599,-60 599,-40 435,-40"/>
<polygon fill="none" stroke="#000000" points="435,-40 435,-60 599,-60 599,-40 435,-40"/>
<text text-anchor="start" x="501.5" y="-47.8" font-family="Verdana" font-size="9.00" fill="#000000">UID: 4</text>
<polygon fill="#e1f5fe" stroke="transparent" points="435,-20 435,-40 599,-40 599,-20 435,-20"/>
<polygon fill="none" stroke="#000000" points="435,-20 435,-40 599,-40 599,-20 435,-20"/>
<text text-anchor="start" x="501.5" y="-27.8" font-family="Verdana" font-size="9.00" fill="#000000">GID: 2</text>
<polygon fill="#b3e5fc" stroke="transparent" points="435,0 435,-20 599,-20 599,0 435,0"/>
<polygon fill="none" stroke="#000000" points="435,0 435,-20 599,-20 599,0 435,0"/>
<text text-anchor="start" x="490.5" y="-7.8" font-family="Verdana" font-size="9.00" fill="#000000">Block 1: #4</text>
</g>
<!-- INode231600_bloque_0_content_1&#45;&gt;INode231864 -->
<g id="edge5" class="edge">
<title>INode231600_bloque_0_content_1&#45;&gt;INode231864</title>
<path fill="none" stroke="#000000" d="M393.2889,-181.9861C403.5956,-175.1556 414.9022,-167.6624 426.3603,-160.0689"/>
<polygon fill="#000000" stroke="#000000" points="428.316,-162.9717 434.7181,-154.53 424.449,-157.1368 428.316,-162.9717"/>
</g>
<!-- INode231864_bloque_0 -->
<g id="node9" class="node">
<title>INode231864_bloque_0</title>
<polygon fill="#ff6f00" stroke="transparent" points="664.5,-90 664.5,-110 711.5,-110 711.5,-90 664.5,-90"/>
<polygon fill="none" stroke="#000000" points="664.5,-90 664.5,-110 711.5,-110 711.5,-90 664.5,-90"/>
<text text-anchor="start" x="669.5" y="-98.8" font-family="Verdana" font-weight="bold" font-size="9.00" fill="#ffffff">Block 4</text>
</g>
<!-- INode231864&#45;&gt;INode231864_bloque_0 -->
<g id="edge8" class="edge">
<title>INode231864&#45;&gt;INode231864_bloque_0</title>
<path fill="none" stroke="#000000" d="M599.2535,-100C616.9327,-100 634.784,-100 649.7611,-100"/>
<polygon fill="#000000" stroke="#000000" points="650.1151,-103.5001 660.1151,-100 650.1151,-96.5001 650.1151,-103.5001"/>
</g>
<!-- INode231864_bloque_0_content_0 -->
<g id="node10" class="node">
<title>INode231864_bloque_0_content_0</title>
<polygon fill="#4caf50" stroke="transparent" points="782,-110 782,-130 882,-130 882,-110 782,-110"/>
<polygon fill="none" stroke="#000000" points="782,-110 782,-130 882,-130 882,-110 782,-110"/>
<text text-anchor="start" x="787" y="-118.8" font-family="Verdana" font-weight="bold" font-size="9.00" fill="#ffffff">Directory Content</text>
<polygon fill="#a5d6a7" stroke="transparent" points="782,-90 782,-110 882,-110 882,-90 782,-90"/>
<polygon fill="none" stroke="#000000" points="782,-90 782,-110 882,-110 882,-90 782,-90"/>
<text text-anchor="start" x="806" y="-97.8" font-family="Verdana" font-size="9.00" fill="#000000">Name: alex</text>
<polygon fill="#c8e6c9" stroke="transparent" points="782,-70 782,-90 882,-90 882,-70 782,-70"/>
<polygon fill="none" stroke="#000000" points="782,-70 782,-90 882,-90 882,-70 782,-70"/>
<text text-anchor="start" x="812" y="-77.8" font-family="Verdana" font-size="9.00" fill="#000000">INode: 3</text>
</g>
<!-- INode231864_bloque_0&#45;&gt;INode231864_bloque_0_content_0 -->
<g id="edge9" class="edge">
<title>INode231864_bloque_0&#45;&gt;INode231864_bloque_0_content_0</title>
<path fill="none" stroke="#000000" d="M714.6793,-100C730.7613,-100 751.8036,-100 771.6208,-100"/>
<polygon fill="#000000" stroke="#000000" points="771.8396,-103.5001 781.8395,-100 771.8395,-96.5001 771.8396,-103.5001"/>
<text text-anchor="middle" x="760.5" y="-103.8" font-family="Times,serif" font-size="14.00" fill="#000000">1</text>
</g>
<!-- INode231996 -->
<g id="node11" class="node">
<title>INode231996</title>
<polygon fill="#03a9f4" stroke="transparent" points="919,-170 919,-190 1083,-190 1083,-170 919,-170"/>
<polygon fill="none" stroke="#000000" points="919,-170 919,-190 1083,-190 1083,-170 919,-170"/>
<text text-anchor="start" x="982" y="-178.8" font-family="Verdana" font-weight="bold" font-size="9.00" fill="#ffffff">INode3</text>
<polygon fill="#b3e5fc" stroke="transparent" points="919,-150 919,-170 1083,-170 1083,-150 919,-150"/>
<polygon fill="none" stroke="#000000" points="919,-150 919,-170 1083,-170 1083,-150 919,-150"/>
<text text-anchor="start" x="926" y="-157.8" font-family="Verdana" font-size="9.00" fill="#000000">Append time: 07/09/2021 23:45</text>
<polygon fill="#e1f5fe" stroke="transparent" points="919,-130 919,-150 1083,-150 1083,-130 919,-130"/>
<polygon fill="none" stroke="#000000" points="919,-130 919,-150 1083,-150 1083,-130 919,-130"/>
<text text-anchor="start" x="924" y="-137.8" font-family="Verdana" font-size="9.00" fill="#000000">Creation time: 07/09/2021 23:45</text>
<polygon fill="#b3e5fc" stroke="transparent" points="919,-110 919,-130 1083,-130 1083,-110 919,-110"/>
<polygon fill="none" stroke="#000000" points="919,-110 919,-130 1083,-130 1083,-110 919,-110"/>
<text text-anchor="start" x="928.5" y="-117.8" font-family="Verdana" font-size="9.00" fill="#000000">Modify time: 07/09/2021 23:45</text>
<polygon fill="#e1f5fe" stroke="transparent" points="919,-90 919,-110 1083,-110 1083,-90 919,-90"/>
<polygon fill="none" stroke="#000000" points="919,-90 919,-110 1083,-110 1083,-90 919,-90"/>
<text text-anchor="start" x="966.5" y="-97.8" font-family="Verdana" font-size="9.00" fill="#000000">Type: Directory</text>
<polygon fill="#b3e5fc" stroke="transparent" points="919,-70 919,-90 1083,-90 1083,-70 919,-70"/>
<polygon fill="none" stroke="#000000" points="919,-70 919,-90 1083,-90 1083,-70 919,-70"/>
<text text-anchor="start" x="985.5" y="-77.8" font-family="Verdana" font-size="9.00" fill="#000000">Size: 0</text>
<polygon fill="#e1f5fe" stroke="transparent" points="919,-50 919,-70 1083,-70 1083,-50 919,-50"/>
<polygon fill="none" stroke="#000000" points="919,-50 919,-70 1083,-70 1083,-50 919,-50"/>
<text text-anchor="start" x="962" y="-57.8" font-family="Verdana" font-size="9.00" fill="#000000">Permissions: 777</text>
<polygon fill="#b3e5fc" stroke="transparent" points="919,-30 919,-50 1083,-50 1083,-30 919,-30"/>
<polygon fill="none" stroke="#000000" points="919,-30 919,-50 1083,-50 1083,-30 919,-30"/>
<text text-anchor="start" x="985.5" y="-37.8" font-family="Verdana" font-size="9.00" fill="#000000">UID: 4</text>
<polygon fill="#e1f5fe" stroke="transparent" points="919,-10 919,-30 1083,-30 1083,-10 919,-10"/>
<polygon fill="none" stroke="#000000" points="919,-10 919,-30 1083,-30 1083,-10 919,-10"/>
<text text-anchor="start" x="985.5" y="-17.8" font-family="Verdana" font-size="9.00" fill="#000000">GID: 2</text>
</g>
<!-- INode231864_bloque_0_content_0&#45;&gt;INode231996 -->
<g id="edge10" class="edge">
<title>INode231864_bloque_0_content_0&#45;&gt;INode231996</title>
<path fill="none" stroke="#000000" d="M882.248,-100C890.6605,-100 899.6182,-100 908.697,-100"/>
<polygon fill="#000000" stroke="#000000" points="908.9763,-103.5001 918.9762,-100 908.9762,-96.5001 908.9763,-103.5001"/>
</g>
</g>
</svg>
