<?xml version="1.0" encoding="UTF-8" standalone="no"?>
<!DOCTYPE svg PUBLIC "-//W3C//DTD SVG 1.1//EN"
 "http://www.w3.org/Graphics/SVG/1.1/DTD/svg11.dtd">
<!-- Generated by graphviz version 2.40.1 (20161225.0304)
 -->
<!-- Title: G Pages: 1 -->
<svg width="1708pt" height="711pt"
 viewBox="0.00 0.00 1708.00 711.00" xmlns="http://www.w3.org/2000/svg" xmlns:xlink="http://www.w3.org/1999/xlink">
<g id="graph0" class="graph" transform="scale(1 1) rotate(0) translate(4 707)">
<title>G</title>
<polygon fill="#ffffff" stroke="transparent" points="-4,4 -4,-707 1704,-707 1704,4 -4,4"/>
<!-- INode216576 -->
<g id="node1" class="node">
<title>INode216576</title>
<polygon fill="#03a9f4" stroke="transparent" points="0,-596 0,-616 164,-616 164,-596 0,-596"/>
<polygon fill="none" stroke="#000000" points="0,-596 0,-616 164,-616 164,-596 0,-596"/>
<text text-anchor="start" x="63" y="-604.8" font-family="Verdana" font-weight="bold" font-size="9.00" fill="#ffffff">INode0</text>
<polygon fill="#b3e5fc" stroke="transparent" points="0,-576 0,-596 164,-596 164,-576 0,-576"/>
<polygon fill="none" stroke="#000000" points="0,-576 0,-596 164,-596 164,-576 0,-576"/>
<text text-anchor="start" x="7" y="-583.8" font-family="Verdana" font-size="9.00" fill="#000000">Append time: 08/09/2021 02:12</text>
<polygon fill="#e1f5fe" stroke="transparent" points="0,-556 0,-576 164,-576 164,-556 0,-556"/>
<polygon fill="none" stroke="#000000" points="0,-556 0,-576 164,-576 164,-556 0,-556"/>
<text text-anchor="start" x="5" y="-563.8" font-family="Verdana" font-size="9.00" fill="#000000">Creation time: 08/09/2021 02:12</text>
<polygon fill="#b3e5fc" stroke="transparent" points="0,-536 0,-556 164,-556 164,-536 0,-536"/>
<polygon fill="none" stroke="#000000" points="0,-536 0,-556 164,-556 164,-536 0,-536"/>
<text text-anchor="start" x="9.5" y="-543.8" font-family="Verdana" font-size="9.00" fill="#000000">Modify time: 08/09/2021 02:12</text>
<polygon fill="#e1f5fe" stroke="transparent" points="0,-516 0,-536 164,-536 164,-516 0,-516"/>
<polygon fill="none" stroke="#000000" points="0,-516 0,-536 164,-536 164,-516 0,-516"/>
<text text-anchor="start" x="47.5" y="-523.8" font-family="Verdana" font-size="9.00" fill="#000000">Type: Directory</text>
<polygon fill="#b3e5fc" stroke="transparent" points="0,-496 0,-516 164,-516 164,-496 0,-496"/>
<polygon fill="none" stroke="#000000" points="0,-496 0,-516 164,-516 164,-496 0,-496"/>
<text text-anchor="start" x="66.5" y="-503.8" font-family="Verdana" font-size="9.00" fill="#000000">Size: 0</text>
<polygon fill="#e1f5fe" stroke="transparent" points="0,-476 0,-496 164,-496 164,-476 0,-476"/>
<polygon fill="none" stroke="#000000" points="0,-476 0,-496 164,-496 164,-476 0,-476"/>
<text text-anchor="start" x="43" y="-483.8" font-family="Verdana" font-size="9.00" fill="#000000">Permissions: 664</text>
<polygon fill="#b3e5fc" stroke="transparent" points="0,-456 0,-476 164,-476 164,-456 0,-456"/>
<polygon fill="none" stroke="#000000" points="0,-456 0,-476 164,-476 164,-456 0,-456"/>
<text text-anchor="start" x="66.5" y="-463.8" font-family="Verdana" font-size="9.00" fill="#000000">UID: 1</text>
<polygon fill="#e1f5fe" stroke="transparent" points="0,-436 0,-456 164,-456 164,-436 0,-436"/>
<polygon fill="none" stroke="#000000" points="0,-436 0,-456 164,-456 164,-436 0,-436"/>
<text text-anchor="start" x="66.5" y="-443.8" font-family="Verdana" font-size="9.00" fill="#000000">GID: 1</text>
<polygon fill="#b3e5fc" stroke="transparent" points="0,-416 0,-436 164,-436 164,-416 0,-416"/>
<polygon fill="none" stroke="#000000" points="0,-416 0,-436 164,-436 164,-416 0,-416"/>
<text text-anchor="start" x="55.5" y="-423.8" font-family="Verdana" font-size="9.00" fill="#000000">Block 1: #1</text>
</g>
<!-- INode216576_bloque_0 -->
<g id="node2" class="node">
<title>INode216576_bloque_0</title>
<polygon fill="#ff6f00" stroke="transparent" points="205,-506 205,-526 252,-526 252,-506 205,-506"/>
<polygon fill="none" stroke="#000000" points="205,-506 205,-526 252,-526 252,-506 205,-506"/>
<text text-anchor="start" x="210" y="-514.8" font-family="Verdana" font-weight="bold" font-size="9.00" fill="#ffffff">Block 1</text>
</g>
<!-- INode216576&#45;&gt;INode216576_bloque_0 -->
<g id="edge1" class="edge">
<title>INode216576&#45;&gt;INode216576_bloque_0</title>
<path fill="none" stroke="#000000" d="M164.387,-516C173.5616,-516 182.5352,-516 190.7148,-516"/>
<polygon fill="#000000" stroke="#000000" points="190.9607,-519.5001 200.9607,-516 190.9606,-512.5001 190.9607,-519.5001"/>
</g>
<!-- INode216576_bloque_0_content_0 -->
<g id="node3" class="node">
<title>INode216576_bloque_0_content_0</title>
<polygon fill="#4caf50" stroke="transparent" points="298,-584 298,-604 398,-604 398,-584 298,-584"/>
<polygon fill="none" stroke="#000000" points="298,-584 298,-604 398,-604 398,-584 298,-584"/>
<text text-anchor="start" x="303" y="-592.8" font-family="Verdana" font-weight="bold" font-size="9.00" fill="#ffffff">Directory Content</text>
<polygon fill="#a5d6a7" stroke="transparent" points="298,-564 298,-584 398,-584 398,-564 298,-564"/>
<polygon fill="none" stroke="#000000" points="298,-564 298,-584 398,-584 398,-564 298,-564"/>
<text text-anchor="start" x="311.5" y="-571.8" font-family="Verdana" font-size="9.00" fill="#000000">Name: users.txt</text>
<polygon fill="#c8e6c9" stroke="transparent" points="298,-544 298,-564 398,-564 398,-544 298,-544"/>
<polygon fill="none" stroke="#000000" points="298,-544 298,-564 398,-564 398,-544 298,-544"/>
<text text-anchor="start" x="328" y="-551.8" font-family="Verdana" font-size="9.00" fill="#000000">INode: 1</text>
</g>
<!-- INode216576_bloque_0&#45;&gt;INode216576_bloque_0_content_0 -->
<g id="edge2" class="edge">
<title>INode216576_bloque_0&#45;&gt;INode216576_bloque_0_content_0</title>
<path fill="none" stroke="#000000" d="M255.2299,-529.1611C265.1605,-533.9609 276.8188,-539.5958 288.4544,-545.2196"/>
<polygon fill="#000000" stroke="#000000" points="287.2209,-548.5108 297.7475,-549.7113 290.2671,-542.2083 287.2209,-548.5108"/>
<text text-anchor="middle" x="276.5" y="-542.8" font-family="Times,serif" font-size="14.00" fill="#000000">1</text>
</g>
<!-- INode216576_bloque_0_content_1 -->
<g id="node5" class="node">
<title>INode216576_bloque_0_content_1</title>
<polygon fill="#4caf50" stroke="transparent" points="298,-487 298,-507 398,-507 398,-487 298,-487"/>
<polygon fill="none" stroke="#000000" points="298,-487 298,-507 398,-507 398,-487 298,-487"/>
<text text-anchor="start" x="303" y="-495.8" font-family="Verdana" font-weight="bold" font-size="9.00" fill="#ffffff">Directory Content</text>
<polygon fill="#a5d6a7" stroke="transparent" points="298,-467 298,-487 398,-487 398,-467 298,-467"/>
<polygon fill="none" stroke="#000000" points="298,-467 298,-487 398,-487 398,-467 298,-467"/>
<text text-anchor="start" x="318.5" y="-474.8" font-family="Verdana" font-size="9.00" fill="#000000">Name: home</text>
<polygon fill="#c8e6c9" stroke="transparent" points="298,-447 298,-467 398,-467 398,-447 298,-447"/>
<polygon fill="none" stroke="#000000" points="298,-447 298,-467 398,-467 398,-447 298,-447"/>
<text text-anchor="start" x="328" y="-454.8" font-family="Verdana" font-size="9.00" fill="#000000">INode: 2</text>
</g>
<!-- INode216576_bloque_0&#45;&gt;INode216576_bloque_0_content_1 -->
<g id="edge4" class="edge">
<title>INode216576_bloque_0&#45;&gt;INode216576_bloque_0_content_1</title>
<path fill="none" stroke="#000000" d="M255.2299,-507.1503C265.0622,-503.9548 276.5881,-500.2089 288.1087,-496.4647"/>
<polygon fill="#000000" stroke="#000000" points="289.319,-499.7516 297.7475,-493.3321 287.1553,-493.0944 289.319,-499.7516"/>
<text text-anchor="middle" x="276.5" y="-504.8" font-family="Times,serif" font-size="14.00" fill="#000000">2</text>
</g>
<!-- INode216708 -->
<g id="node4" class="node">
<title>INode216708</title>
<polygon fill="#03a9f4" stroke="transparent" points="435,-683 435,-703 599,-703 599,-683 435,-683"/>
<polygon fill="none" stroke="#000000" points="435,-683 435,-703 599,-703 599,-683 435,-683"/>
<text text-anchor="start" x="498" y="-691.8" font-family="Verdana" font-weight="bold" font-size="9.00" fill="#ffffff">INode1</text>
<polygon fill="#b3e5fc" stroke="transparent" points="435,-663 435,-683 599,-683 599,-663 435,-663"/>
<polygon fill="none" stroke="#000000" points="435,-663 435,-683 599,-683 599,-663 435,-663"/>
<text text-anchor="start" x="442" y="-670.8" font-family="Verdana" font-size="9.00" fill="#000000">Append time: 08/09/2021 02:12</text>
<polygon fill="#e1f5fe" stroke="transparent" points="435,-643 435,-663 599,-663 599,-643 435,-643"/>
<polygon fill="none" stroke="#000000" points="435,-643 435,-663 599,-663 599,-643 435,-643"/>
<text text-anchor="start" x="440" y="-650.8" font-family="Verdana" font-size="9.00" fill="#000000">Creation time: 08/09/2021 02:12</text>
<polygon fill="#b3e5fc" stroke="transparent" points="435,-623 435,-643 599,-643 599,-623 435,-623"/>
<polygon fill="none" stroke="#000000" points="435,-623 435,-643 599,-643 599,-623 435,-623"/>
<text text-anchor="start" x="444.5" y="-630.8" font-family="Verdana" font-size="9.00" fill="#000000">Modify time: 08/09/2021 02:12</text>
<polygon fill="#e1f5fe" stroke="transparent" points="435,-603 435,-623 599,-623 599,-603 435,-603"/>
<polygon fill="none" stroke="#000000" points="435,-603 435,-623 599,-623 599,-603 435,-603"/>
<text text-anchor="start" x="495.5" y="-610.8" font-family="Verdana" font-size="9.00" fill="#000000">Type: File</text>
<polygon fill="#b3e5fc" stroke="transparent" points="435,-583 435,-603 599,-603 599,-583 435,-583"/>
<polygon fill="none" stroke="#000000" points="435,-583 435,-603 599,-603 599,-583 435,-583"/>
<text text-anchor="start" x="495.5" y="-590.8" font-family="Verdana" font-size="9.00" fill="#000000">Size: 103</text>
<polygon fill="#e1f5fe" stroke="transparent" points="435,-563 435,-583 599,-583 599,-563 435,-563"/>
<polygon fill="none" stroke="#000000" points="435,-563 435,-583 599,-583 599,-563 435,-563"/>
<text text-anchor="start" x="478" y="-570.8" font-family="Verdana" font-size="9.00" fill="#000000">Permissions: 664</text>
<polygon fill="#b3e5fc" stroke="transparent" points="435,-543 435,-563 599,-563 599,-543 435,-543"/>
<polygon fill="none" stroke="#000000" points="435,-543 435,-563 599,-563 599,-543 435,-543"/>
<text text-anchor="start" x="501.5" y="-550.8" font-family="Verdana" font-size="9.00" fill="#000000">UID: 1</text>
<polygon fill="#e1f5fe" stroke="transparent" points="435,-523 435,-543 599,-543 599,-523 435,-523"/>
<polygon fill="none" stroke="#000000" points="435,-523 435,-543 599,-543 599,-523 435,-523"/>
<text text-anchor="start" x="501.5" y="-530.8" font-family="Verdana" font-size="9.00" fill="#000000">GID: 1</text>
<polygon fill="#b3e5fc" stroke="transparent" points="435,-503 435,-523 599,-523 599,-503 435,-503"/>
<polygon fill="none" stroke="#000000" points="435,-503 435,-523 599,-523 599,-503 435,-503"/>
<text text-anchor="start" x="490.5" y="-510.8" font-family="Verdana" font-size="9.00" fill="#000000">Block 1: #2</text>
<polygon fill="#e1f5fe" stroke="transparent" points="435,-483 435,-503 599,-503 599,-483 435,-483"/>
<polygon fill="none" stroke="#000000" points="435,-483 435,-503 599,-503 599,-483 435,-483"/>
<text text-anchor="start" x="490.5" y="-490.8" font-family="Verdana" font-size="9.00" fill="#000000">Block 2: #3</text>
</g>
<!-- INode216576_bloque_0_content_0&#45;&gt;INode216708 -->
<g id="edge3" class="edge">
<title>INode216576_bloque_0_content_0&#45;&gt;INode216708</title>
<path fill="none" stroke="#000000" d="M398.248,-579.6492C406.7509,-580.6051 415.8109,-581.6237 424.9899,-582.6557"/>
<polygon fill="#000000" stroke="#000000" points="424.6478,-586.1392 434.9762,-583.7784 425.4299,-579.183 424.6478,-586.1392"/>
</g>
<!-- INode216708_bloque_0 -->
<g id="node7" class="node">
<title>INode216708_bloque_0</title>
<polygon fill="#ffc107" stroke="transparent" points="642.5,-659 642.5,-679 733.5,-679 733.5,-659 642.5,-659"/>
<polygon fill="none" stroke="#000000" points="642.5,-659 642.5,-679 733.5,-679 733.5,-659 642.5,-659"/>
<text text-anchor="start" x="669.5" y="-667.8" font-family="Verdana" font-weight="bold" font-size="9.00" fill="#ffffff">Block 2</text>
<polygon fill="#fff9c4" stroke="transparent" points="642.5,-599 642.5,-659 733.5,-659 733.5,-599 642.5,-599"/>
<polygon fill="none" stroke="#000000" points="642.5,-599 642.5,-659 733.5,-659 733.5,-599 642.5,-599"/>
<text text-anchor="start" x="669.5" y="-646.8" font-family="Verdana" font-size="9.00" fill="#000000">1,G,root</text>
<text text-anchor="start" x="648.5" y="-636.8" font-family="Verdana" font-size="9.00" fill="#000000">1,U,root,root,123</text>
<text text-anchor="start" x="647.5" y="-626.8" font-family="Verdana" font-size="9.00" fill="#000000">2,U,root,user,123</text>
<text text-anchor="start" x="669.5" y="-616.8" font-family="Verdana" font-size="9.00" fill="#000000">2,G,test</text>
<text text-anchor="start" x="659" y="-606.8" font-family="Verdana" font-size="9.00" fill="#000000">3,G,test2 &#160;&#160;&#160;&#160;</text>
</g>
<!-- INode216708&#45;&gt;INode216708_bloque_0 -->
<g id="edge6" class="edge">
<title>INode216708&#45;&gt;INode216708_bloque_0</title>
<path fill="none" stroke="#000000" d="M599.2535,-615.1916C610.3531,-618.1862 621.5205,-621.1991 632.0018,-624.0269"/>
<polygon fill="#000000" stroke="#000000" points="631.2496,-627.449 641.8161,-626.6747 633.073,-620.6907 631.2496,-627.449"/>
</g>
<!-- INode216708_bloque_1 -->
<g id="node8" class="node">
<title>INode216708_bloque_1</title>
<polygon fill="#ffc107" stroke="transparent" points="636.5,-561 636.5,-581 739.5,-581 739.5,-561 636.5,-561"/>
<polygon fill="none" stroke="#000000" points="636.5,-561 636.5,-581 739.5,-581 739.5,-561 636.5,-561"/>
<text text-anchor="start" x="669.5" y="-569.8" font-family="Verdana" font-weight="bold" font-size="9.00" fill="#ffffff">Block 3</text>
<polygon fill="#fff9c4" stroke="transparent" points="636.5,-511 636.5,-561 739.5,-561 739.5,-511 636.5,-511"/>
<polygon fill="none" stroke="#000000" points="636.5,-511 636.5,-561 739.5,-561 739.5,-511 636.5,-511"/>
<text text-anchor="start" x="641.5" y="-538.8" font-family="Verdana" font-size="9.00" fill="#000000">3,U,test2,daniel,123</text>
<text text-anchor="start" x="648.5" y="-528.8" font-family="Verdana" font-size="9.00" fill="#000000">4,U,test,alex,123</text>
<text text-anchor="start" x="680" y="-518.8" font-family="Verdana" font-size="9.00" fill="#000000"> &#160;&#160;&#160;&#160;</text>
</g>
<!-- INode216708&#45;&gt;INode216708_bloque_1 -->
<g id="edge7" class="edge">
<title>INode216708&#45;&gt;INode216708_bloque_1</title>
<path fill="none" stroke="#000000" d="M599.2535,-570.326C608.2867,-567.8359 617.3649,-565.3334 626.0815,-562.9306"/>
<polygon fill="#000000" stroke="#000000" points="627.0375,-566.2977 635.7477,-560.266 625.1772,-559.5494 627.0375,-566.2977"/>
</g>
<!-- INode216840 -->
<g id="node6" class="node">
<title>INode216840</title>
<polygon fill="#03a9f4" stroke="transparent" points="435,-445 435,-465 599,-465 599,-445 435,-445"/>
<polygon fill="none" stroke="#000000" points="435,-445 435,-465 599,-465 599,-445 435,-445"/>
<text text-anchor="start" x="498" y="-453.8" font-family="Verdana" font-weight="bold" font-size="9.00" fill="#ffffff">INode2</text>
<polygon fill="#b3e5fc" stroke="transparent" points="435,-425 435,-445 599,-445 599,-425 435,-425"/>
<polygon fill="none" stroke="#000000" points="435,-425 435,-445 599,-445 599,-425 435,-425"/>
<text text-anchor="start" x="442" y="-432.8" font-family="Verdana" font-size="9.00" fill="#000000">Append time: 08/09/2021 02:12</text>
<polygon fill="#e1f5fe" stroke="transparent" points="435,-405 435,-425 599,-425 599,-405 435,-405"/>
<polygon fill="none" stroke="#000000" points="435,-405 435,-425 599,-425 599,-405 435,-405"/>
<text text-anchor="start" x="440" y="-412.8" font-family="Verdana" font-size="9.00" fill="#000000">Creation time: 08/09/2021 02:12</text>
<polygon fill="#b3e5fc" stroke="transparent" points="435,-385 435,-405 599,-405 599,-385 435,-385"/>
<polygon fill="none" stroke="#000000" points="435,-385 435,-405 599,-405 599,-385 435,-385"/>
<text text-anchor="start" x="444.5" y="-392.8" font-family="Verdana" font-size="9.00" fill="#000000">Modify time: 08/09/2021 02:12</text>
<polygon fill="#e1f5fe" stroke="transparent" points="435,-365 435,-385 599,-385 599,-365 435,-365"/>
<polygon fill="none" stroke="#000000" points="435,-365 435,-385 599,-385 599,-365 435,-365"/>
<text text-anchor="start" x="482.5" y="-372.8" font-family="Verdana" font-size="9.00" fill="#000000">Type: Directory</text>
<polygon fill="#b3e5fc" stroke="transparent" points="435,-345 435,-365 599,-365 599,-345 435,-345"/>
<polygon fill="none" stroke="#000000" points="435,-345 435,-365 599,-365 599,-345 435,-345"/>
<text text-anchor="start" x="501.5" y="-352.8" font-family="Verdana" font-size="9.00" fill="#000000">Size: 0</text>
<polygon fill="#e1f5fe" stroke="transparent" points="435,-325 435,-345 599,-345 599,-325 435,-325"/>
<polygon fill="none" stroke="#000000" points="435,-325 435,-345 599,-345 599,-325 435,-325"/>
<text text-anchor="start" x="478" y="-332.8" font-family="Verdana" font-size="9.00" fill="#000000">Permissions: 777</text>
<polygon fill="#b3e5fc" stroke="transparent" points="435,-305 435,-325 599,-325 599,-305 435,-305"/>
<polygon fill="none" stroke="#000000" points="435,-305 435,-325 599,-325 599,-305 435,-305"/>
<text text-anchor="start" x="501.5" y="-312.8" font-family="Verdana" font-size="9.00" fill="#000000">UID: 1</text>
<polygon fill="#e1f5fe" stroke="transparent" points="435,-285 435,-305 599,-305 599,-285 435,-285"/>
<polygon fill="none" stroke="#000000" points="435,-285 435,-305 599,-305 599,-285 435,-285"/>
<text text-anchor="start" x="501.5" y="-292.8" font-family="Verdana" font-size="9.00" fill="#000000">GID: 1</text>
<polygon fill="#b3e5fc" stroke="transparent" points="435,-265 435,-285 599,-285 599,-265 435,-265"/>
<polygon fill="none" stroke="#000000" points="435,-265 435,-285 599,-285 599,-265 435,-265"/>
<text text-anchor="start" x="490.5" y="-272.8" font-family="Verdana" font-size="9.00" fill="#000000">Block 1: #4</text>
</g>
<!-- INode216576_bloque_0_content_1&#45;&gt;INode216840 -->
<g id="edge5" class="edge">
<title>INode216576_bloque_0_content_1&#45;&gt;INode216840</title>
<path fill="none" stroke="#000000" d="M393.2889,-446.9861C403.5956,-440.1556 414.9022,-432.6624 426.3603,-425.0689"/>
<polygon fill="#000000" stroke="#000000" points="428.316,-427.9717 434.7181,-419.53 424.449,-422.1368 428.316,-427.9717"/>
</g>
<!-- INode216840_bloque_0 -->
<g id="node9" class="node">
<title>INode216840_bloque_0</title>
<polygon fill="#ff6f00" stroke="transparent" points="664.5,-355 664.5,-375 711.5,-375 711.5,-355 664.5,-355"/>
<polygon fill="none" stroke="#000000" points="664.5,-355 664.5,-375 711.5,-375 711.5,-355 664.5,-355"/>
<text text-anchor="start" x="669.5" y="-363.8" font-family="Verdana" font-weight="bold" font-size="9.00" fill="#ffffff">Block 4</text>
</g>
<!-- INode216840&#45;&gt;INode216840_bloque_0 -->
<g id="edge8" class="edge">
<title>INode216840&#45;&gt;INode216840_bloque_0</title>
<path fill="none" stroke="#000000" d="M599.2535,-365C616.9327,-365 634.784,-365 649.7611,-365"/>
<polygon fill="#000000" stroke="#000000" points="650.1151,-368.5001 660.1151,-365 650.1151,-361.5001 650.1151,-368.5001"/>
</g>
<!-- INode216840_bloque_0_content_0 -->
<g id="node10" class="node">
<title>INode216840_bloque_0_content_0</title>
<polygon fill="#4caf50" stroke="transparent" points="782,-446 782,-466 882,-466 882,-446 782,-446"/>
<polygon fill="none" stroke="#000000" points="782,-446 782,-466 882,-466 882,-446 782,-446"/>
<text text-anchor="start" x="787" y="-454.8" font-family="Verdana" font-weight="bold" font-size="9.00" fill="#ffffff">Directory Content</text>
<polygon fill="#a5d6a7" stroke="transparent" points="782,-426 782,-446 882,-446 882,-426 782,-426"/>
<polygon fill="none" stroke="#000000" points="782,-426 782,-446 882,-446 882,-426 782,-426"/>
<text text-anchor="start" x="806" y="-433.8" font-family="Verdana" font-size="9.00" fill="#000000">Name: alex</text>
<polygon fill="#c8e6c9" stroke="transparent" points="782,-406 782,-426 882,-426 882,-406 782,-406"/>
<polygon fill="none" stroke="#000000" points="782,-406 782,-426 882,-426 882,-406 782,-406"/>
<text text-anchor="start" x="812" y="-413.8" font-family="Verdana" font-size="9.00" fill="#000000">INode: 3</text>
</g>
<!-- INode216840_bloque_0&#45;&gt;INode216840_bloque_0_content_0 -->
<g id="edge9" class="edge">
<title>INode216840_bloque_0&#45;&gt;INode216840_bloque_0_content_0</title>
<path fill="none" stroke="#000000" d="M714.6793,-378.3546C731.0564,-386.4014 752.5774,-396.9758 772.7104,-406.8681"/>
<polygon fill="#000000" stroke="#000000" points="771.3209,-410.085 781.8395,-411.3537 774.4079,-403.8024 771.3209,-410.085"/>
<text text-anchor="middle" x="760.5" y="-403.8" font-family="Times,serif" font-size="14.00" fill="#000000">1</text>
</g>
<!-- INode216840_bloque_0_content_1 -->
<g id="node12" class="node">
<title>INode216840_bloque_0_content_1</title>
<polygon fill="#4caf50" stroke="transparent" points="782,-336 782,-356 882,-356 882,-336 782,-336"/>
<polygon fill="none" stroke="#000000" points="782,-336 782,-356 882,-356 882,-336 782,-336"/>
<text text-anchor="start" x="787" y="-344.8" font-family="Verdana" font-weight="bold" font-size="9.00" fill="#ffffff">Directory Content</text>
<polygon fill="#a5d6a7" stroke="transparent" points="782,-316 782,-336 882,-336 882,-316 782,-316"/>
<polygon fill="none" stroke="#000000" points="782,-316 782,-336 882,-336 882,-316 782,-316"/>
<text text-anchor="start" x="806.5" y="-323.8" font-family="Verdana" font-size="9.00" fill="#000000">Name: test</text>
<polygon fill="#c8e6c9" stroke="transparent" points="782,-296 782,-316 882,-316 882,-296 782,-296"/>
<polygon fill="none" stroke="#000000" points="782,-296 782,-316 882,-316 882,-296 782,-296"/>
<text text-anchor="start" x="812" y="-303.8" font-family="Verdana" font-size="9.00" fill="#000000">INode: 4</text>
</g>
<!-- INode216840_bloque_0&#45;&gt;INode216840_bloque_0_content_1 -->
<g id="edge11" class="edge">
<title>INode216840_bloque_0&#45;&gt;INode216840_bloque_0_content_1</title>
<path fill="none" stroke="#000000" d="M714.6793,-357.6644C730.9088,-353.2841 752.1901,-347.5404 772.1659,-342.149"/>
<polygon fill="#000000" stroke="#000000" points="773.097,-345.523 781.8395,-339.5381 771.273,-338.7648 773.097,-345.523"/>
<text text-anchor="middle" x="760.5" y="-348.8" font-family="Times,serif" font-size="14.00" fill="#000000">2</text>
</g>
<!-- INode216972 -->
<g id="node11" class="node">
<title>INode216972</title>
<polygon fill="#03a9f4" stroke="transparent" points="919,-522 919,-542 1083,-542 1083,-522 919,-522"/>
<polygon fill="none" stroke="#000000" points="919,-522 919,-542 1083,-542 1083,-522 919,-522"/>
<text text-anchor="start" x="982" y="-530.8" font-family="Verdana" font-weight="bold" font-size="9.00" fill="#ffffff">INode3</text>
<polygon fill="#b3e5fc" stroke="transparent" points="919,-502 919,-522 1083,-522 1083,-502 919,-502"/>
<polygon fill="none" stroke="#000000" points="919,-502 919,-522 1083,-522 1083,-502 919,-502"/>
<text text-anchor="start" x="926" y="-509.8" font-family="Verdana" font-size="9.00" fill="#000000">Append time: 08/09/2021 02:12</text>
<polygon fill="#e1f5fe" stroke="transparent" points="919,-482 919,-502 1083,-502 1083,-482 919,-482"/>
<polygon fill="none" stroke="#000000" points="919,-482 919,-502 1083,-502 1083,-482 919,-482"/>
<text text-anchor="start" x="924" y="-489.8" font-family="Verdana" font-size="9.00" fill="#000000">Creation time: 08/09/2021 02:12</text>
<polygon fill="#b3e5fc" stroke="transparent" points="919,-462 919,-482 1083,-482 1083,-462 919,-462"/>
<polygon fill="none" stroke="#000000" points="919,-462 919,-482 1083,-482 1083,-462 919,-462"/>
<text text-anchor="start" x="928.5" y="-469.8" font-family="Verdana" font-size="9.00" fill="#000000">Modify time: 08/09/2021 02:12</text>
<polygon fill="#e1f5fe" stroke="transparent" points="919,-442 919,-462 1083,-462 1083,-442 919,-442"/>
<polygon fill="none" stroke="#000000" points="919,-442 919,-462 1083,-462 1083,-442 919,-442"/>
<text text-anchor="start" x="966.5" y="-449.8" font-family="Verdana" font-size="9.00" fill="#000000">Type: Directory</text>
<polygon fill="#b3e5fc" stroke="transparent" points="919,-422 919,-442 1083,-442 1083,-422 919,-422"/>
<polygon fill="none" stroke="#000000" points="919,-422 919,-442 1083,-442 1083,-422 919,-422"/>
<text text-anchor="start" x="985.5" y="-429.8" font-family="Verdana" font-size="9.00" fill="#000000">Size: 0</text>
<polygon fill="#e1f5fe" stroke="transparent" points="919,-402 919,-422 1083,-422 1083,-402 919,-402"/>
<polygon fill="none" stroke="#000000" points="919,-402 919,-422 1083,-422 1083,-402 919,-402"/>
<text text-anchor="start" x="962" y="-409.8" font-family="Verdana" font-size="9.00" fill="#000000">Permissions: 777</text>
<polygon fill="#b3e5fc" stroke="transparent" points="919,-382 919,-402 1083,-402 1083,-382 919,-382"/>
<polygon fill="none" stroke="#000000" points="919,-382 919,-402 1083,-402 1083,-382 919,-382"/>
<text text-anchor="start" x="985.5" y="-389.8" font-family="Verdana" font-size="9.00" fill="#000000">UID: 1</text>
<polygon fill="#e1f5fe" stroke="transparent" points="919,-362 919,-382 1083,-382 1083,-362 919,-362"/>
<polygon fill="none" stroke="#000000" points="919,-362 919,-382 1083,-382 1083,-362 919,-362"/>
<text text-anchor="start" x="985.5" y="-369.8" font-family="Verdana" font-size="9.00" fill="#000000">GID: 1</text>
</g>
<!-- INode216840_bloque_0_content_0&#45;&gt;INode216972 -->
<g id="edge10" class="edge">
<title>INode216840_bloque_0_content_0&#45;&gt;INode216972</title>
<path fill="none" stroke="#000000" d="M882.248,-440.7572C890.7509,-441.5622 899.8109,-442.42 908.9899,-443.289"/>
<polygon fill="#000000" stroke="#000000" points="908.6908,-446.7762 918.9762,-444.2344 909.3507,-439.8074 908.6908,-446.7762"/>
</g>
<!-- INode217104 -->
<g id="node13" class="node">
<title>INode217104</title>
<polygon fill="#03a9f4" stroke="transparent" points="919,-324 919,-344 1083,-344 1083,-324 919,-324"/>
<polygon fill="none" stroke="#000000" points="919,-324 919,-344 1083,-344 1083,-324 919,-324"/>
<text text-anchor="start" x="982" y="-332.8" font-family="Verdana" font-weight="bold" font-size="9.00" fill="#ffffff">INode4</text>
<polygon fill="#b3e5fc" stroke="transparent" points="919,-304 919,-324 1083,-324 1083,-304 919,-304"/>
<polygon fill="none" stroke="#000000" points="919,-304 919,-324 1083,-324 1083,-304 919,-304"/>
<text text-anchor="start" x="926" y="-311.8" font-family="Verdana" font-size="9.00" fill="#000000">Append time: 08/09/2021 02:12</text>
<polygon fill="#e1f5fe" stroke="transparent" points="919,-284 919,-304 1083,-304 1083,-284 919,-284"/>
<polygon fill="none" stroke="#000000" points="919,-284 919,-304 1083,-304 1083,-284 919,-284"/>
<text text-anchor="start" x="924" y="-291.8" font-family="Verdana" font-size="9.00" fill="#000000">Creation time: 08/09/2021 02:12</text>
<polygon fill="#b3e5fc" stroke="transparent" points="919,-264 919,-284 1083,-284 1083,-264 919,-264"/>
<polygon fill="none" stroke="#000000" points="919,-264 919,-284 1083,-284 1083,-264 919,-264"/>
<text text-anchor="start" x="928.5" y="-271.8" font-family="Verdana" font-size="9.00" fill="#000000">Modify time: 08/09/2021 02:12</text>
<polygon fill="#e1f5fe" stroke="transparent" points="919,-244 919,-264 1083,-264 1083,-244 919,-244"/>
<polygon fill="none" stroke="#000000" points="919,-244 919,-264 1083,-264 1083,-244 919,-244"/>
<text text-anchor="start" x="966.5" y="-251.8" font-family="Verdana" font-size="9.00" fill="#000000">Type: Directory</text>
<polygon fill="#b3e5fc" stroke="transparent" points="919,-224 919,-244 1083,-244 1083,-224 919,-224"/>
<polygon fill="none" stroke="#000000" points="919,-224 919,-244 1083,-244 1083,-224 919,-224"/>
<text text-anchor="start" x="985.5" y="-231.8" font-family="Verdana" font-size="9.00" fill="#000000">Size: 0</text>
<polygon fill="#e1f5fe" stroke="transparent" points="919,-204 919,-224 1083,-224 1083,-204 919,-204"/>
<polygon fill="none" stroke="#000000" points="919,-204 919,-224 1083,-224 1083,-204 919,-204"/>
<text text-anchor="start" x="962" y="-211.8" font-family="Verdana" font-size="9.00" fill="#000000">Permissions: 664</text>
<polygon fill="#b3e5fc" stroke="transparent" points="919,-184 919,-204 1083,-204 1083,-184 919,-184"/>
<polygon fill="none" stroke="#000000" points="919,-184 919,-204 1083,-204 1083,-184 919,-184"/>
<text text-anchor="start" x="985.5" y="-191.8" font-family="Verdana" font-size="9.00" fill="#000000">UID: 1</text>
<polygon fill="#e1f5fe" stroke="transparent" points="919,-164 919,-184 1083,-184 1083,-164 919,-164"/>
<polygon fill="none" stroke="#000000" points="919,-164 919,-184 1083,-184 1083,-164 919,-164"/>
<text text-anchor="start" x="985.5" y="-171.8" font-family="Verdana" font-size="9.00" fill="#000000">GID: 1</text>
<polygon fill="#b3e5fc" stroke="transparent" points="919,-144 919,-164 1083,-164 1083,-144 919,-144"/>
<polygon fill="none" stroke="#000000" points="919,-144 919,-164 1083,-164 1083,-144 919,-144"/>
<text text-anchor="start" x="974.5" y="-151.8" font-family="Verdana" font-size="9.00" fill="#000000">Block 1: #5</text>
</g>
<!-- INode216840_bloque_0_content_1&#45;&gt;INode217104 -->
<g id="edge12" class="edge">
<title>INode216840_bloque_0_content_1&#45;&gt;INode217104</title>
<path fill="none" stroke="#000000" d="M882.248,-301.6193C891.0223,-297.362 900.3897,-292.8168 909.8691,-288.2173"/>
<polygon fill="#000000" stroke="#000000" points="911.5072,-291.3128 918.9762,-283.7985 908.4515,-285.015 911.5072,-291.3128"/>
</g>
<!-- INode217104_bloque_0 -->
<g id="node14" class="node">
<title>INode217104_bloque_0</title>
<polygon fill="#ff6f00" stroke="transparent" points="1124,-234 1124,-254 1171,-254 1171,-234 1124,-234"/>
<polygon fill="none" stroke="#000000" points="1124,-234 1124,-254 1171,-254 1171,-234 1124,-234"/>
<text text-anchor="start" x="1129" y="-242.8" font-family="Verdana" font-weight="bold" font-size="9.00" fill="#ffffff">Block 5</text>
</g>
<!-- INode217104&#45;&gt;INode217104_bloque_0 -->
<g id="edge13" class="edge">
<title>INode217104&#45;&gt;INode217104_bloque_0</title>
<path fill="none" stroke="#000000" d="M1083.387,-244C1092.5616,-244 1101.5352,-244 1109.7148,-244"/>
<polygon fill="#000000" stroke="#000000" points="1109.9607,-247.5001 1119.9607,-244 1109.9606,-240.5001 1109.9607,-247.5001"/>
</g>
<!-- INode217104_bloque_0_content_0 -->
<g id="node15" class="node">
<title>INode217104_bloque_0_content_0</title>
<polygon fill="#4caf50" stroke="transparent" points="1217,-310 1217,-330 1317,-330 1317,-310 1217,-310"/>
<polygon fill="none" stroke="#000000" points="1217,-310 1217,-330 1317,-330 1317,-310 1217,-310"/>
<text text-anchor="start" x="1222" y="-318.8" font-family="Verdana" font-weight="bold" font-size="9.00" fill="#ffffff">Directory Content</text>
<polygon fill="#a5d6a7" stroke="transparent" points="1217,-290 1217,-310 1317,-310 1317,-290 1217,-290"/>
<polygon fill="none" stroke="#000000" points="1217,-290 1217,-310 1317,-310 1317,-290 1217,-290"/>
<text text-anchor="start" x="1233.5" y="-297.8" font-family="Verdana" font-size="9.00" fill="#000000">Name: test.txt</text>
<polygon fill="#c8e6c9" stroke="transparent" points="1217,-270 1217,-290 1317,-290 1317,-270 1217,-270"/>
<polygon fill="none" stroke="#000000" points="1217,-270 1217,-290 1317,-290 1317,-270 1217,-270"/>
<text text-anchor="start" x="1247" y="-277.8" font-family="Verdana" font-size="9.00" fill="#000000">INode: 5</text>
</g>
<!-- INode217104_bloque_0&#45;&gt;INode217104_bloque_0_content_0 -->
<g id="edge14" class="edge">
<title>INode217104_bloque_0&#45;&gt;INode217104_bloque_0_content_0</title>
<path fill="none" stroke="#000000" d="M1174.2299,-256.7073C1184.1605,-261.3416 1195.8188,-266.7821 1207.4544,-272.212"/>
<polygon fill="#000000" stroke="#000000" points="1206.2055,-275.4916 1216.7475,-276.5488 1209.1658,-269.1483 1206.2055,-275.4916"/>
<text text-anchor="middle" x="1195.5" y="-269.8" font-family="Times,serif" font-size="14.00" fill="#000000">1</text>
</g>
<!-- INode217104_bloque_0_content_1 -->
<g id="node17" class="node">
<title>INode217104_bloque_0_content_1</title>
<polygon fill="#4caf50" stroke="transparent" points="1217,-215 1217,-235 1317,-235 1317,-215 1217,-215"/>
<polygon fill="none" stroke="#000000" points="1217,-215 1217,-235 1317,-235 1317,-215 1217,-215"/>
<text text-anchor="start" x="1222" y="-223.8" font-family="Verdana" font-weight="bold" font-size="9.00" fill="#ffffff">Directory Content</text>
<polygon fill="#a5d6a7" stroke="transparent" points="1217,-195 1217,-215 1317,-215 1317,-195 1217,-195"/>
<polygon fill="none" stroke="#000000" points="1217,-195 1217,-215 1317,-215 1317,-195 1217,-195"/>
<text text-anchor="start" x="1230.5" y="-202.8" font-family="Verdana" font-size="9.00" fill="#000000">Name: test2.txt</text>
<polygon fill="#c8e6c9" stroke="transparent" points="1217,-175 1217,-195 1317,-195 1317,-175 1217,-175"/>
<polygon fill="none" stroke="#000000" points="1217,-175 1217,-195 1317,-195 1317,-175 1217,-175"/>
<text text-anchor="start" x="1247" y="-182.8" font-family="Verdana" font-size="9.00" fill="#000000">INode: 6</text>
</g>
<!-- INode217104_bloque_0&#45;&gt;INode217104_bloque_0_content_1 -->
<g id="edge16" class="edge">
<title>INode217104_bloque_0&#45;&gt;INode217104_bloque_0_content_1</title>
<path fill="none" stroke="#000000" d="M1174.2299,-235.1503C1184.0622,-231.9548 1195.5881,-228.2089 1207.1087,-224.4647"/>
<polygon fill="#000000" stroke="#000000" points="1208.319,-227.7516 1216.7475,-221.3321 1206.1553,-221.0944 1208.319,-227.7516"/>
<text text-anchor="middle" x="1195.5" y="-232.8" font-family="Times,serif" font-size="14.00" fill="#000000">2</text>
</g>
<!-- INode217236 -->
<g id="node16" class="node">
<title>INode217236</title>
<polygon fill="#03a9f4" stroke="transparent" points="1354,-398 1354,-418 1518,-418 1518,-398 1354,-398"/>
<polygon fill="none" stroke="#000000" points="1354,-398 1354,-418 1518,-418 1518,-398 1354,-398"/>
<text text-anchor="start" x="1417" y="-406.8" font-family="Verdana" font-weight="bold" font-size="9.00" fill="#ffffff">INode5</text>
<polygon fill="#b3e5fc" stroke="transparent" points="1354,-378 1354,-398 1518,-398 1518,-378 1354,-378"/>
<polygon fill="none" stroke="#000000" points="1354,-378 1354,-398 1518,-398 1518,-378 1354,-378"/>
<text text-anchor="start" x="1361" y="-385.8" font-family="Verdana" font-size="9.00" fill="#000000">Append time: 08/09/2021 02:12</text>
<polygon fill="#e1f5fe" stroke="transparent" points="1354,-358 1354,-378 1518,-378 1518,-358 1354,-358"/>
<polygon fill="none" stroke="#000000" points="1354,-358 1354,-378 1518,-378 1518,-358 1354,-358"/>
<text text-anchor="start" x="1359" y="-365.8" font-family="Verdana" font-size="9.00" fill="#000000">Creation time: 08/09/2021 02:12</text>
<polygon fill="#b3e5fc" stroke="transparent" points="1354,-338 1354,-358 1518,-358 1518,-338 1354,-338"/>
<polygon fill="none" stroke="#000000" points="1354,-338 1354,-358 1518,-358 1518,-338 1354,-338"/>
<text text-anchor="start" x="1363.5" y="-345.8" font-family="Verdana" font-size="9.00" fill="#000000">Modify time: 08/09/2021 02:12</text>
<polygon fill="#e1f5fe" stroke="transparent" points="1354,-318 1354,-338 1518,-338 1518,-318 1354,-318"/>
<polygon fill="none" stroke="#000000" points="1354,-318 1354,-338 1518,-338 1518,-318 1354,-318"/>
<text text-anchor="start" x="1414.5" y="-325.8" font-family="Verdana" font-size="9.00" fill="#000000">Type: File</text>
<polygon fill="#b3e5fc" stroke="transparent" points="1354,-298 1354,-318 1518,-318 1518,-298 1354,-298"/>
<polygon fill="none" stroke="#000000" points="1354,-298 1354,-318 1518,-318 1518,-298 1354,-298"/>
<text text-anchor="start" x="1417.5" y="-305.8" font-family="Verdana" font-size="9.00" fill="#000000">Size: 39</text>
<polygon fill="#e1f5fe" stroke="transparent" points="1354,-278 1354,-298 1518,-298 1518,-278 1354,-278"/>
<polygon fill="none" stroke="#000000" points="1354,-278 1354,-298 1518,-298 1518,-278 1354,-278"/>
<text text-anchor="start" x="1397" y="-285.8" font-family="Verdana" font-size="9.00" fill="#000000">Permissions: 664</text>
<polygon fill="#b3e5fc" stroke="transparent" points="1354,-258 1354,-278 1518,-278 1518,-258 1354,-258"/>
<polygon fill="none" stroke="#000000" points="1354,-258 1354,-278 1518,-278 1518,-258 1354,-258"/>
<text text-anchor="start" x="1420.5" y="-265.8" font-family="Verdana" font-size="9.00" fill="#000000">UID: 1</text>
<polygon fill="#e1f5fe" stroke="transparent" points="1354,-238 1354,-258 1518,-258 1518,-238 1354,-238"/>
<polygon fill="none" stroke="#000000" points="1354,-238 1354,-258 1518,-258 1518,-238 1354,-238"/>
<text text-anchor="start" x="1420.5" y="-245.8" font-family="Verdana" font-size="9.00" fill="#000000">GID: 1</text>
<polygon fill="#b3e5fc" stroke="transparent" points="1354,-218 1354,-238 1518,-238 1518,-218 1354,-218"/>
<polygon fill="none" stroke="#000000" points="1354,-218 1354,-238 1518,-238 1518,-218 1354,-218"/>
<text text-anchor="start" x="1409.5" y="-225.8" font-family="Verdana" font-size="9.00" fill="#000000">Block 1: #6</text>
</g>
<!-- INode217104_bloque_0_content_0&#45;&gt;INode217236 -->
<g id="edge15" class="edge">
<title>INode217104_bloque_0_content_0&#45;&gt;INode217236</title>
<path fill="none" stroke="#000000" d="M1317.248,-305.3519C1325.7509,-306.2575 1334.8109,-307.2225 1343.9899,-308.2001"/>
<polygon fill="#000000" stroke="#000000" points="1343.6618,-311.6849 1353.9762,-309.2637 1344.4032,-304.7242 1343.6618,-311.6849"/>
</g>
<!-- INode217236_bloque_0 -->
<g id="node19" class="node">
<title>INode217236_bloque_0</title>
<polygon fill="#ffc107" stroke="transparent" points="1555.5,-323 1555.5,-343 1700.5,-343 1700.5,-323 1555.5,-323"/>
<polygon fill="none" stroke="#000000" points="1555.5,-323 1555.5,-343 1700.5,-343 1700.5,-323 1555.5,-323"/>
<text text-anchor="start" x="1609.5" y="-331.8" font-family="Verdana" font-weight="bold" font-size="9.00" fill="#ffffff">Block 6</text>
<polygon fill="#fff9c4" stroke="transparent" points="1555.5,-293 1555.5,-323 1700.5,-323 1700.5,-293 1555.5,-293"/>
<polygon fill="none" stroke="#000000" points="1555.5,-293 1555.5,-323 1700.5,-323 1700.5,-293 1555.5,-293"/>
<text text-anchor="start" x="1560.5" y="-310.8" font-family="Verdana" font-size="9.00" fill="#000000">Alex Daniel Santos Valenzuela</text>
<text text-anchor="start" x="1593" y="-300.8" font-family="Verdana" font-size="9.00" fill="#000000">201904117 &#160;&#160;&#160;&#160;</text>
</g>
<!-- INode217236&#45;&gt;INode217236_bloque_0 -->
<g id="edge18" class="edge">
<title>INode217236&#45;&gt;INode217236_bloque_0</title>
<path fill="none" stroke="#000000" d="M1518.0466,-318C1526.8753,-318 1535.8628,-318 1544.7003,-318"/>
<polygon fill="#000000" stroke="#000000" points="1544.9875,-321.5001 1554.9874,-318 1544.9874,-314.5001 1544.9875,-321.5001"/>
</g>
<!-- INode217368 -->
<g id="node18" class="node">
<title>INode217368</title>
<polygon fill="#03a9f4" stroke="transparent" points="1354,-180 1354,-200 1518,-200 1518,-180 1354,-180"/>
<polygon fill="none" stroke="#000000" points="1354,-180 1354,-200 1518,-200 1518,-180 1354,-180"/>
<text text-anchor="start" x="1417" y="-188.8" font-family="Verdana" font-weight="bold" font-size="9.00" fill="#ffffff">INode6</text>
<polygon fill="#b3e5fc" stroke="transparent" points="1354,-160 1354,-180 1518,-180 1518,-160 1354,-160"/>
<polygon fill="none" stroke="#000000" points="1354,-160 1354,-180 1518,-180 1518,-160 1354,-160"/>
<text text-anchor="start" x="1361" y="-167.8" font-family="Verdana" font-size="9.00" fill="#000000">Append time: 08/09/2021 02:12</text>
<polygon fill="#e1f5fe" stroke="transparent" points="1354,-140 1354,-160 1518,-160 1518,-140 1354,-140"/>
<polygon fill="none" stroke="#000000" points="1354,-140 1354,-160 1518,-160 1518,-140 1354,-140"/>
<text text-anchor="start" x="1359" y="-147.8" font-family="Verdana" font-size="9.00" fill="#000000">Creation time: 08/09/2021 02:12</text>
<polygon fill="#b3e5fc" stroke="transparent" points="1354,-120 1354,-140 1518,-140 1518,-120 1354,-120"/>
<polygon fill="none" stroke="#000000" points="1354,-120 1354,-140 1518,-140 1518,-120 1354,-120"/>
<text text-anchor="start" x="1363.5" y="-127.8" font-family="Verdana" font-size="9.00" fill="#000000">Modify time: 08/09/2021 02:12</text>
<polygon fill="#e1f5fe" stroke="transparent" points="1354,-100 1354,-120 1518,-120 1518,-100 1354,-100"/>
<polygon fill="none" stroke="#000000" points="1354,-100 1354,-120 1518,-120 1518,-100 1354,-100"/>
<text text-anchor="start" x="1414.5" y="-107.8" font-family="Verdana" font-size="9.00" fill="#000000">Type: File</text>
<polygon fill="#b3e5fc" stroke="transparent" points="1354,-80 1354,-100 1518,-100 1518,-80 1354,-80"/>
<polygon fill="none" stroke="#000000" points="1354,-80 1354,-100 1518,-100 1518,-80 1354,-80"/>
<text text-anchor="start" x="1417.5" y="-87.8" font-family="Verdana" font-size="9.00" fill="#000000">Size: 15</text>
<polygon fill="#e1f5fe" stroke="transparent" points="1354,-60 1354,-80 1518,-80 1518,-60 1354,-60"/>
<polygon fill="none" stroke="#000000" points="1354,-60 1354,-80 1518,-80 1518,-60 1354,-60"/>
<text text-anchor="start" x="1397" y="-67.8" font-family="Verdana" font-size="9.00" fill="#000000">Permissions: 664</text>
<polygon fill="#b3e5fc" stroke="transparent" points="1354,-40 1354,-60 1518,-60 1518,-40 1354,-40"/>
<polygon fill="none" stroke="#000000" points="1354,-40 1354,-60 1518,-60 1518,-40 1354,-40"/>
<text text-anchor="start" x="1420.5" y="-47.8" font-family="Verdana" font-size="9.00" fill="#000000">UID: 1</text>
<polygon fill="#e1f5fe" stroke="transparent" points="1354,-20 1354,-40 1518,-40 1518,-20 1354,-20"/>
<polygon fill="none" stroke="#000000" points="1354,-20 1354,-40 1518,-40 1518,-20 1354,-20"/>
<text text-anchor="start" x="1420.5" y="-27.8" font-family="Verdana" font-size="9.00" fill="#000000">GID: 1</text>
<polygon fill="#b3e5fc" stroke="transparent" points="1354,0 1354,-20 1518,-20 1518,0 1354,0"/>
<polygon fill="none" stroke="#000000" points="1354,0 1354,-20 1518,-20 1518,0 1354,0"/>
<text text-anchor="start" x="1409.5" y="-7.8" font-family="Verdana" font-size="9.00" fill="#000000">Block 1: #7</text>
</g>
<!-- INode217104_bloque_0_content_1&#45;&gt;INode217368 -->
<g id="edge17" class="edge">
<title>INode217104_bloque_0_content_1&#45;&gt;INode217368</title>
<path fill="none" stroke="#000000" d="M1315.4286,-174.9112C1324.8014,-169.0879 1334.903,-162.8117 1345.1298,-156.4578"/>
<polygon fill="#000000" stroke="#000000" points="1347.0895,-159.3608 1353.7365,-151.1105 1343.3953,-153.415 1347.0895,-159.3608"/>
</g>
<!-- INode217368_bloque_0 -->
<g id="node20" class="node">
<title>INode217368_bloque_0</title>
<polygon fill="#ffc107" stroke="transparent" points="1579.5,-100 1579.5,-120 1675.5,-120 1675.5,-100 1579.5,-100"/>
<polygon fill="none" stroke="#000000" points="1579.5,-100 1579.5,-120 1675.5,-120 1675.5,-100 1579.5,-100"/>
<text text-anchor="start" x="1609" y="-108.8" font-family="Verdana" font-weight="bold" font-size="9.00" fill="#ffffff">Block 7</text>
<polygon fill="#fff9c4" stroke="transparent" points="1579.5,-80 1579.5,-100 1675.5,-100 1675.5,-80 1579.5,-80"/>
<polygon fill="none" stroke="#000000" points="1579.5,-80 1579.5,-100 1675.5,-100 1675.5,-80 1579.5,-80"/>
<text text-anchor="start" x="1584.5" y="-87.8" font-family="Verdana" font-size="9.00" fill="#000000">texto de prueba &#160;&#160;&#160;&#160;</text>
</g>
<!-- INode217368&#45;&gt;INode217368_bloque_0 -->
<g id="edge19" class="edge">
<title>INode217368&#45;&gt;INode217368_bloque_0</title>
<path fill="none" stroke="#000000" d="M1518.0466,-100C1535.2013,-100 1552.9551,-100 1569.044,-100"/>
<polygon fill="#000000" stroke="#000000" points="1569.3532,-103.5001 1579.3532,-100 1569.3532,-96.5001 1569.3532,-103.5001"/>
</g>
</g>
</svg>
