<?xml version="1.0" encoding="UTF-8" standalone="no"?>
<!DOCTYPE svg PUBLIC "-//W3C//DTD SVG 1.1//EN"
 "http://www.w3.org/Graphics/SVG/1.1/DTD/svg11.dtd">
<!-- Generated by graphviz version 2.40.1 (20161225.0304)
 -->
<!-- Title: G Pages: 1 -->
<svg width="1708pt" height="567pt"
 viewBox="0.00 0.00 1708.00 567.00" xmlns="http://www.w3.org/2000/svg" xmlns:xlink="http://www.w3.org/1999/xlink">
<g id="graph0" class="graph" transform="scale(1 1) rotate(0) translate(4 563)">
<title>G</title>
<polygon fill="#ffffff" stroke="transparent" points="-4,4 -4,-563 1704,-563 1704,4 -4,4"/>
<!-- INode21124915 -->
<g id="node1" class="node">
<title>INode21124915</title>
<polygon fill="#03a9f4" stroke="transparent" points="0,-452 0,-472 164,-472 164,-452 0,-452"/>
<polygon fill="none" stroke="#000000" points="0,-452 0,-472 164,-472 164,-452 0,-452"/>
<text text-anchor="start" x="63" y="-460.8" font-family="Verdana" font-weight="bold" font-size="9.00" fill="#ffffff">INode0</text>
<polygon fill="#b3e5fc" stroke="transparent" points="0,-432 0,-452 164,-452 164,-432 0,-432"/>
<polygon fill="none" stroke="#000000" points="0,-432 0,-452 164,-452 164,-432 0,-432"/>
<text text-anchor="start" x="7" y="-439.8" font-family="Verdana" font-size="9.00" fill="#000000">Append time: 08/09/2021 19:00</text>
<polygon fill="#e1f5fe" stroke="transparent" points="0,-412 0,-432 164,-432 164,-412 0,-412"/>
<polygon fill="none" stroke="#000000" points="0,-412 0,-432 164,-432 164,-412 0,-412"/>
<text text-anchor="start" x="5" y="-419.8" font-family="Verdana" font-size="9.00" fill="#000000">Creation time: 08/09/2021 19:00</text>
<polygon fill="#b3e5fc" stroke="transparent" points="0,-392 0,-412 164,-412 164,-392 0,-392"/>
<polygon fill="none" stroke="#000000" points="0,-392 0,-412 164,-412 164,-392 0,-392"/>
<text text-anchor="start" x="9.5" y="-399.8" font-family="Verdana" font-size="9.00" fill="#000000">Modify time: 08/09/2021 19:00</text>
<polygon fill="#e1f5fe" stroke="transparent" points="0,-372 0,-392 164,-392 164,-372 0,-372"/>
<polygon fill="none" stroke="#000000" points="0,-372 0,-392 164,-392 164,-372 0,-372"/>
<text text-anchor="start" x="47.5" y="-379.8" font-family="Verdana" font-size="9.00" fill="#000000">Type: Directory</text>
<polygon fill="#b3e5fc" stroke="transparent" points="0,-352 0,-372 164,-372 164,-352 0,-352"/>
<polygon fill="none" stroke="#000000" points="0,-352 0,-372 164,-372 164,-352 0,-352"/>
<text text-anchor="start" x="66.5" y="-359.8" font-family="Verdana" font-size="9.00" fill="#000000">Size: 0</text>
<polygon fill="#e1f5fe" stroke="transparent" points="0,-332 0,-352 164,-352 164,-332 0,-332"/>
<polygon fill="none" stroke="#000000" points="0,-332 0,-352 164,-352 164,-332 0,-332"/>
<text text-anchor="start" x="43" y="-339.8" font-family="Verdana" font-size="9.00" fill="#000000">Permissions: 664</text>
<polygon fill="#b3e5fc" stroke="transparent" points="0,-312 0,-332 164,-332 164,-312 0,-312"/>
<polygon fill="none" stroke="#000000" points="0,-312 0,-332 164,-332 164,-312 0,-312"/>
<text text-anchor="start" x="66.5" y="-319.8" font-family="Verdana" font-size="9.00" fill="#000000">UID: 1</text>
<polygon fill="#e1f5fe" stroke="transparent" points="0,-292 0,-312 164,-312 164,-292 0,-292"/>
<polygon fill="none" stroke="#000000" points="0,-292 0,-312 164,-312 164,-292 0,-292"/>
<text text-anchor="start" x="66.5" y="-299.8" font-family="Verdana" font-size="9.00" fill="#000000">GID: 1</text>
<polygon fill="#b3e5fc" stroke="transparent" points="0,-272 0,-292 164,-292 164,-272 0,-272"/>
<polygon fill="none" stroke="#000000" points="0,-272 0,-292 164,-292 164,-272 0,-272"/>
<text text-anchor="start" x="55.5" y="-279.8" font-family="Verdana" font-size="9.00" fill="#000000">Block 1: #1</text>
</g>
<!-- INode21124915_bloque_0 -->
<g id="node2" class="node">
<title>INode21124915_bloque_0</title>
<polygon fill="#ff6f00" stroke="transparent" points="205,-362 205,-382 252,-382 252,-362 205,-362"/>
<polygon fill="none" stroke="#000000" points="205,-362 205,-382 252,-382 252,-362 205,-362"/>
<text text-anchor="start" x="210" y="-370.8" font-family="Verdana" font-weight="bold" font-size="9.00" fill="#ffffff">Block 1</text>
</g>
<!-- INode21124915&#45;&gt;INode21124915_bloque_0 -->
<g id="edge1" class="edge">
<title>INode21124915&#45;&gt;INode21124915_bloque_0</title>
<path fill="none" stroke="#000000" d="M164.387,-372C173.5616,-372 182.5352,-372 190.7148,-372"/>
<polygon fill="#000000" stroke="#000000" points="190.9607,-375.5001 200.9607,-372 190.9606,-368.5001 190.9607,-375.5001"/>
</g>
<!-- INode21124915_bloque_0_content_0 -->
<g id="node3" class="node">
<title>INode21124915_bloque_0_content_0</title>
<polygon fill="#4caf50" stroke="transparent" points="298,-440 298,-460 398,-460 398,-440 298,-440"/>
<polygon fill="none" stroke="#000000" points="298,-440 298,-460 398,-460 398,-440 298,-440"/>
<text text-anchor="start" x="303" y="-448.8" font-family="Verdana" font-weight="bold" font-size="9.00" fill="#ffffff">Directory Content</text>
<polygon fill="#a5d6a7" stroke="transparent" points="298,-420 298,-440 398,-440 398,-420 298,-420"/>
<polygon fill="none" stroke="#000000" points="298,-420 298,-440 398,-440 398,-420 298,-420"/>
<text text-anchor="start" x="311.5" y="-427.8" font-family="Verdana" font-size="9.00" fill="#000000">Name: users.txt</text>
<polygon fill="#c8e6c9" stroke="transparent" points="298,-400 298,-420 398,-420 398,-400 298,-400"/>
<polygon fill="none" stroke="#000000" points="298,-400 298,-420 398,-420 398,-400 298,-400"/>
<text text-anchor="start" x="328" y="-407.8" font-family="Verdana" font-size="9.00" fill="#000000">INode: 1</text>
</g>
<!-- INode21124915_bloque_0&#45;&gt;INode21124915_bloque_0_content_0 -->
<g id="edge2" class="edge">
<title>INode21124915_bloque_0&#45;&gt;INode21124915_bloque_0_content_0</title>
<path fill="none" stroke="#000000" d="M255.2299,-385.1611C265.1605,-389.9609 276.8188,-395.5958 288.4544,-401.2196"/>
<polygon fill="#000000" stroke="#000000" points="287.2209,-404.5108 297.7475,-405.7113 290.2671,-398.2083 287.2209,-404.5108"/>
<text text-anchor="middle" x="276.5" y="-398.8" font-family="Times,serif" font-size="14.00" fill="#000000">1</text>
</g>
<!-- INode21124915_bloque_0_content_1 -->
<g id="node5" class="node">
<title>INode21124915_bloque_0_content_1</title>
<polygon fill="#4caf50" stroke="transparent" points="298,-343 298,-363 398,-363 398,-343 298,-343"/>
<polygon fill="none" stroke="#000000" points="298,-343 298,-363 398,-363 398,-343 298,-343"/>
<text text-anchor="start" x="303" y="-351.8" font-family="Verdana" font-weight="bold" font-size="9.00" fill="#ffffff">Directory Content</text>
<polygon fill="#a5d6a7" stroke="transparent" points="298,-323 298,-343 398,-343 398,-323 298,-323"/>
<polygon fill="none" stroke="#000000" points="298,-323 298,-343 398,-343 398,-323 298,-323"/>
<text text-anchor="start" x="318.5" y="-330.8" font-family="Verdana" font-size="9.00" fill="#000000">Name: home</text>
<polygon fill="#c8e6c9" stroke="transparent" points="298,-303 298,-323 398,-323 398,-303 298,-303"/>
<polygon fill="none" stroke="#000000" points="298,-303 298,-323 398,-323 398,-303 298,-303"/>
<text text-anchor="start" x="328" y="-310.8" font-family="Verdana" font-size="9.00" fill="#000000">INode: 2</text>
</g>
<!-- INode21124915_bloque_0&#45;&gt;INode21124915_bloque_0_content_1 -->
<g id="edge4" class="edge">
<title>INode21124915_bloque_0&#45;&gt;INode21124915_bloque_0_content_1</title>
<path fill="none" stroke="#000000" d="M255.2299,-363.1503C265.0622,-359.9548 276.5881,-356.2089 288.1087,-352.4647"/>
<polygon fill="#000000" stroke="#000000" points="289.319,-355.7516 297.7475,-349.3321 287.1553,-349.0944 289.319,-355.7516"/>
<text text-anchor="middle" x="276.5" y="-360.8" font-family="Times,serif" font-size="14.00" fill="#000000">2</text>
</g>
<!-- INode21125047 -->
<g id="node4" class="node">
<title>INode21125047</title>
<polygon fill="#03a9f4" stroke="transparent" points="435,-539 435,-559 599,-559 599,-539 435,-539"/>
<polygon fill="none" stroke="#000000" points="435,-539 435,-559 599,-559 599,-539 435,-539"/>
<text text-anchor="start" x="498" y="-547.8" font-family="Verdana" font-weight="bold" font-size="9.00" fill="#ffffff">INode1</text>
<polygon fill="#b3e5fc" stroke="transparent" points="435,-519 435,-539 599,-539 599,-519 435,-519"/>
<polygon fill="none" stroke="#000000" points="435,-519 435,-539 599,-539 599,-519 435,-519"/>
<text text-anchor="start" x="442" y="-526.8" font-family="Verdana" font-size="9.00" fill="#000000">Append time: 08/09/2021 19:00</text>
<polygon fill="#e1f5fe" stroke="transparent" points="435,-499 435,-519 599,-519 599,-499 435,-499"/>
<polygon fill="none" stroke="#000000" points="435,-499 435,-519 599,-519 599,-499 435,-499"/>
<text text-anchor="start" x="440" y="-506.8" font-family="Verdana" font-size="9.00" fill="#000000">Creation time: 08/09/2021 19:00</text>
<polygon fill="#b3e5fc" stroke="transparent" points="435,-479 435,-499 599,-499 599,-479 435,-479"/>
<polygon fill="none" stroke="#000000" points="435,-479 435,-499 599,-499 599,-479 435,-479"/>
<text text-anchor="start" x="444.5" y="-486.8" font-family="Verdana" font-size="9.00" fill="#000000">Modify time: 08/09/2021 19:00</text>
<polygon fill="#e1f5fe" stroke="transparent" points="435,-459 435,-479 599,-479 599,-459 435,-459"/>
<polygon fill="none" stroke="#000000" points="435,-459 435,-479 599,-479 599,-459 435,-459"/>
<text text-anchor="start" x="495.5" y="-466.8" font-family="Verdana" font-size="9.00" fill="#000000">Type: File</text>
<polygon fill="#b3e5fc" stroke="transparent" points="435,-439 435,-459 599,-459 599,-439 435,-439"/>
<polygon fill="none" stroke="#000000" points="435,-439 435,-459 599,-459 599,-439 435,-439"/>
<text text-anchor="start" x="495.5" y="-446.8" font-family="Verdana" font-size="9.00" fill="#000000">Size: 103</text>
<polygon fill="#e1f5fe" stroke="transparent" points="435,-419 435,-439 599,-439 599,-419 435,-419"/>
<polygon fill="none" stroke="#000000" points="435,-419 435,-439 599,-439 599,-419 435,-419"/>
<text text-anchor="start" x="478" y="-426.8" font-family="Verdana" font-size="9.00" fill="#000000">Permissions: 664</text>
<polygon fill="#b3e5fc" stroke="transparent" points="435,-399 435,-419 599,-419 599,-399 435,-399"/>
<polygon fill="none" stroke="#000000" points="435,-399 435,-419 599,-419 599,-399 435,-399"/>
<text text-anchor="start" x="501.5" y="-406.8" font-family="Verdana" font-size="9.00" fill="#000000">UID: 1</text>
<polygon fill="#e1f5fe" stroke="transparent" points="435,-379 435,-399 599,-399 599,-379 435,-379"/>
<polygon fill="none" stroke="#000000" points="435,-379 435,-399 599,-399 599,-379 435,-379"/>
<text text-anchor="start" x="501.5" y="-386.8" font-family="Verdana" font-size="9.00" fill="#000000">GID: 1</text>
<polygon fill="#b3e5fc" stroke="transparent" points="435,-359 435,-379 599,-379 599,-359 435,-359"/>
<polygon fill="none" stroke="#000000" points="435,-359 435,-379 599,-379 599,-359 435,-359"/>
<text text-anchor="start" x="490.5" y="-366.8" font-family="Verdana" font-size="9.00" fill="#000000">Block 1: #2</text>
<polygon fill="#e1f5fe" stroke="transparent" points="435,-339 435,-359 599,-359 599,-339 435,-339"/>
<polygon fill="none" stroke="#000000" points="435,-339 435,-359 599,-359 599,-339 435,-339"/>
<text text-anchor="start" x="490.5" y="-346.8" font-family="Verdana" font-size="9.00" fill="#000000">Block 2: #3</text>
</g>
<!-- INode21124915_bloque_0_content_0&#45;&gt;INode21125047 -->
<g id="edge3" class="edge">
<title>INode21124915_bloque_0_content_0&#45;&gt;INode21125047</title>
<path fill="none" stroke="#000000" d="M398.248,-435.6492C406.7509,-436.6051 415.8109,-437.6237 424.9899,-438.6557"/>
<polygon fill="#000000" stroke="#000000" points="424.6478,-442.1392 434.9762,-439.7784 425.4299,-435.183 424.6478,-442.1392"/>
</g>
<!-- INode21125047_bloque_0 -->
<g id="node7" class="node">
<title>INode21125047_bloque_0</title>
<polygon fill="#ffc107" stroke="transparent" points="642.5,-515 642.5,-535 733.5,-535 733.5,-515 642.5,-515"/>
<polygon fill="none" stroke="#000000" points="642.5,-515 642.5,-535 733.5,-535 733.5,-515 642.5,-515"/>
<text text-anchor="start" x="669.5" y="-523.8" font-family="Verdana" font-weight="bold" font-size="9.00" fill="#ffffff">Block 2</text>
<polygon fill="#fff9c4" stroke="transparent" points="642.5,-455 642.5,-515 733.5,-515 733.5,-455 642.5,-455"/>
<polygon fill="none" stroke="#000000" points="642.5,-455 642.5,-515 733.5,-515 733.5,-455 642.5,-455"/>
<text text-anchor="start" x="669.5" y="-502.8" font-family="Verdana" font-size="9.00" fill="#000000">1,G,root</text>
<text text-anchor="start" x="648.5" y="-492.8" font-family="Verdana" font-size="9.00" fill="#000000">1,U,root,root,123</text>
<text text-anchor="start" x="647.5" y="-482.8" font-family="Verdana" font-size="9.00" fill="#000000">2,U,root,user,123</text>
<text text-anchor="start" x="669.5" y="-472.8" font-family="Verdana" font-size="9.00" fill="#000000">2,G,test</text>
<text text-anchor="start" x="659" y="-462.8" font-family="Verdana" font-size="9.00" fill="#000000">3,G,test2 &#160;&#160;&#160;&#160;</text>
</g>
<!-- INode21125047&#45;&gt;INode21125047_bloque_0 -->
<g id="edge6" class="edge">
<title>INode21125047&#45;&gt;INode21125047_bloque_0</title>
<path fill="none" stroke="#000000" d="M599.2535,-471.1916C610.3531,-474.1862 621.5205,-477.1991 632.0018,-480.0269"/>
<polygon fill="#000000" stroke="#000000" points="631.2496,-483.449 641.8161,-482.6747 633.073,-476.6907 631.2496,-483.449"/>
</g>
<!-- INode21125047_bloque_1 -->
<g id="node8" class="node">
<title>INode21125047_bloque_1</title>
<polygon fill="#ffc107" stroke="transparent" points="636.5,-417 636.5,-437 739.5,-437 739.5,-417 636.5,-417"/>
<polygon fill="none" stroke="#000000" points="636.5,-417 636.5,-437 739.5,-437 739.5,-417 636.5,-417"/>
<text text-anchor="start" x="669.5" y="-425.8" font-family="Verdana" font-weight="bold" font-size="9.00" fill="#ffffff">Block 3</text>
<polygon fill="#fff9c4" stroke="transparent" points="636.5,-367 636.5,-417 739.5,-417 739.5,-367 636.5,-367"/>
<polygon fill="none" stroke="#000000" points="636.5,-367 636.5,-417 739.5,-417 739.5,-367 636.5,-367"/>
<text text-anchor="start" x="641.5" y="-394.8" font-family="Verdana" font-size="9.00" fill="#000000">3,U,test2,daniel,123</text>
<text text-anchor="start" x="648.5" y="-384.8" font-family="Verdana" font-size="9.00" fill="#000000">4,U,test,alex,123</text>
<text text-anchor="start" x="680" y="-374.8" font-family="Verdana" font-size="9.00" fill="#000000"> &#160;&#160;&#160;&#160;</text>
</g>
<!-- INode21125047&#45;&gt;INode21125047_bloque_1 -->
<g id="edge7" class="edge">
<title>INode21125047&#45;&gt;INode21125047_bloque_1</title>
<path fill="none" stroke="#000000" d="M599.2535,-426.326C608.2867,-423.8359 617.3649,-421.3334 626.0815,-418.9306"/>
<polygon fill="#000000" stroke="#000000" points="627.0375,-422.2977 635.7477,-416.266 625.1772,-415.5494 627.0375,-422.2977"/>
</g>
<!-- INode21125179 -->
<g id="node6" class="node">
<title>INode21125179</title>
<polygon fill="#03a9f4" stroke="transparent" points="435,-301 435,-321 599,-321 599,-301 435,-301"/>
<polygon fill="none" stroke="#000000" points="435,-301 435,-321 599,-321 599,-301 435,-301"/>
<text text-anchor="start" x="498" y="-309.8" font-family="Verdana" font-weight="bold" font-size="9.00" fill="#ffffff">INode2</text>
<polygon fill="#b3e5fc" stroke="transparent" points="435,-281 435,-301 599,-301 599,-281 435,-281"/>
<polygon fill="none" stroke="#000000" points="435,-281 435,-301 599,-301 599,-281 435,-281"/>
<text text-anchor="start" x="442" y="-288.8" font-family="Verdana" font-size="9.00" fill="#000000">Append time: 08/09/2021 19:00</text>
<polygon fill="#e1f5fe" stroke="transparent" points="435,-261 435,-281 599,-281 599,-261 435,-261"/>
<polygon fill="none" stroke="#000000" points="435,-261 435,-281 599,-281 599,-261 435,-261"/>
<text text-anchor="start" x="440" y="-268.8" font-family="Verdana" font-size="9.00" fill="#000000">Creation time: 08/09/2021 19:00</text>
<polygon fill="#b3e5fc" stroke="transparent" points="435,-241 435,-261 599,-261 599,-241 435,-241"/>
<polygon fill="none" stroke="#000000" points="435,-241 435,-261 599,-261 599,-241 435,-241"/>
<text text-anchor="start" x="444.5" y="-248.8" font-family="Verdana" font-size="9.00" fill="#000000">Modify time: 08/09/2021 19:00</text>
<polygon fill="#e1f5fe" stroke="transparent" points="435,-221 435,-241 599,-241 599,-221 435,-221"/>
<polygon fill="none" stroke="#000000" points="435,-221 435,-241 599,-241 599,-221 435,-221"/>
<text text-anchor="start" x="482.5" y="-228.8" font-family="Verdana" font-size="9.00" fill="#000000">Type: Directory</text>
<polygon fill="#b3e5fc" stroke="transparent" points="435,-201 435,-221 599,-221 599,-201 435,-201"/>
<polygon fill="none" stroke="#000000" points="435,-201 435,-221 599,-221 599,-201 435,-201"/>
<text text-anchor="start" x="501.5" y="-208.8" font-family="Verdana" font-size="9.00" fill="#000000">Size: 0</text>
<polygon fill="#e1f5fe" stroke="transparent" points="435,-181 435,-201 599,-201 599,-181 435,-181"/>
<polygon fill="none" stroke="#000000" points="435,-181 435,-201 599,-201 599,-181 435,-181"/>
<text text-anchor="start" x="478" y="-188.8" font-family="Verdana" font-size="9.00" fill="#000000">Permissions: 664</text>
<polygon fill="#b3e5fc" stroke="transparent" points="435,-161 435,-181 599,-181 599,-161 435,-161"/>
<polygon fill="none" stroke="#000000" points="435,-161 435,-181 599,-181 599,-161 435,-161"/>
<text text-anchor="start" x="501.5" y="-168.8" font-family="Verdana" font-size="9.00" fill="#000000">UID: 4</text>
<polygon fill="#e1f5fe" stroke="transparent" points="435,-141 435,-161 599,-161 599,-141 435,-141"/>
<polygon fill="none" stroke="#000000" points="435,-141 435,-161 599,-161 599,-141 435,-141"/>
<text text-anchor="start" x="501.5" y="-148.8" font-family="Verdana" font-size="9.00" fill="#000000">GID: 2</text>
<polygon fill="#b3e5fc" stroke="transparent" points="435,-121 435,-141 599,-141 599,-121 435,-121"/>
<polygon fill="none" stroke="#000000" points="435,-121 435,-141 599,-141 599,-121 435,-121"/>
<text text-anchor="start" x="490.5" y="-128.8" font-family="Verdana" font-size="9.00" fill="#000000">Block 1: #4</text>
</g>
<!-- INode21124915_bloque_0_content_1&#45;&gt;INode21125179 -->
<g id="edge5" class="edge">
<title>INode21124915_bloque_0_content_1&#45;&gt;INode21125179</title>
<path fill="none" stroke="#000000" d="M393.2889,-302.9861C403.5956,-296.1556 414.9022,-288.6624 426.3603,-281.0689"/>
<polygon fill="#000000" stroke="#000000" points="428.316,-283.9717 434.7181,-275.53 424.449,-278.1368 428.316,-283.9717"/>
</g>
<!-- INode21125179_bloque_0 -->
<g id="node9" class="node">
<title>INode21125179_bloque_0</title>
<polygon fill="#ff6f00" stroke="transparent" points="664.5,-211 664.5,-231 711.5,-231 711.5,-211 664.5,-211"/>
<polygon fill="none" stroke="#000000" points="664.5,-211 664.5,-231 711.5,-231 711.5,-211 664.5,-211"/>
<text text-anchor="start" x="669.5" y="-219.8" font-family="Verdana" font-weight="bold" font-size="9.00" fill="#ffffff">Block 4</text>
</g>
<!-- INode21125179&#45;&gt;INode21125179_bloque_0 -->
<g id="edge8" class="edge">
<title>INode21125179&#45;&gt;INode21125179_bloque_0</title>
<path fill="none" stroke="#000000" d="M599.2535,-221C616.9327,-221 634.784,-221 649.7611,-221"/>
<polygon fill="#000000" stroke="#000000" points="650.1151,-224.5001 660.1151,-221 650.1151,-217.5001 650.1151,-224.5001"/>
</g>
<!-- INode21125179_bloque_0_content_0 -->
<g id="node10" class="node">
<title>INode21125179_bloque_0_content_0</title>
<polygon fill="#4caf50" stroke="transparent" points="782,-302 782,-322 882,-322 882,-302 782,-302"/>
<polygon fill="none" stroke="#000000" points="782,-302 782,-322 882,-322 882,-302 782,-302"/>
<text text-anchor="start" x="787" y="-310.8" font-family="Verdana" font-weight="bold" font-size="9.00" fill="#ffffff">Directory Content</text>
<polygon fill="#a5d6a7" stroke="transparent" points="782,-282 782,-302 882,-302 882,-282 782,-282"/>
<polygon fill="none" stroke="#000000" points="782,-282 782,-302 882,-302 882,-282 782,-282"/>
<text text-anchor="start" x="806" y="-289.8" font-family="Verdana" font-size="9.00" fill="#000000">Name: alex</text>
<polygon fill="#c8e6c9" stroke="transparent" points="782,-262 782,-282 882,-282 882,-262 782,-262"/>
<polygon fill="none" stroke="#000000" points="782,-262 782,-282 882,-282 882,-262 782,-262"/>
<text text-anchor="start" x="812" y="-269.8" font-family="Verdana" font-size="9.00" fill="#000000">INode: 3</text>
</g>
<!-- INode21125179_bloque_0&#45;&gt;INode21125179_bloque_0_content_0 -->
<g id="edge9" class="edge">
<title>INode21125179_bloque_0&#45;&gt;INode21125179_bloque_0_content_0</title>
<path fill="none" stroke="#000000" d="M714.6793,-234.3546C731.0564,-242.4014 752.5774,-252.9758 772.7104,-262.8681"/>
<polygon fill="#000000" stroke="#000000" points="771.3209,-266.085 781.8395,-267.3537 774.4079,-259.8024 771.3209,-266.085"/>
<text text-anchor="middle" x="760.5" y="-259.8" font-family="Times,serif" font-size="14.00" fill="#000000">1</text>
</g>
<!-- INode21125179_bloque_0_content_1 -->
<g id="node12" class="node">
<title>INode21125179_bloque_0_content_1</title>
<polygon fill="#4caf50" stroke="transparent" points="782,-192 782,-212 882,-212 882,-192 782,-192"/>
<polygon fill="none" stroke="#000000" points="782,-192 782,-212 882,-212 882,-192 782,-192"/>
<text text-anchor="start" x="787" y="-200.8" font-family="Verdana" font-weight="bold" font-size="9.00" fill="#ffffff">Directory Content</text>
<polygon fill="#a5d6a7" stroke="transparent" points="782,-172 782,-192 882,-192 882,-172 782,-172"/>
<polygon fill="none" stroke="#000000" points="782,-172 782,-192 882,-192 882,-172 782,-172"/>
<text text-anchor="start" x="806.5" y="-179.8" font-family="Verdana" font-size="9.00" fill="#000000">Name: test</text>
<polygon fill="#c8e6c9" stroke="transparent" points="782,-152 782,-172 882,-172 882,-152 782,-152"/>
<polygon fill="none" stroke="#000000" points="782,-152 782,-172 882,-172 882,-152 782,-152"/>
<text text-anchor="start" x="812" y="-159.8" font-family="Verdana" font-size="9.00" fill="#000000">INode: 4</text>
</g>
<!-- INode21125179_bloque_0&#45;&gt;INode21125179_bloque_0_content_1 -->
<g id="edge11" class="edge">
<title>INode21125179_bloque_0&#45;&gt;INode21125179_bloque_0_content_1</title>
<path fill="none" stroke="#000000" d="M714.6793,-213.6644C730.9088,-209.2841 752.1901,-203.5404 772.1659,-198.149"/>
<polygon fill="#000000" stroke="#000000" points="773.097,-201.523 781.8395,-195.5381 771.273,-194.7648 773.097,-201.523"/>
<text text-anchor="middle" x="760.5" y="-204.8" font-family="Times,serif" font-size="14.00" fill="#000000">2</text>
</g>
<!-- INode21125311 -->
<g id="node11" class="node">
<title>INode21125311</title>
<polygon fill="#03a9f4" stroke="transparent" points="919,-378 919,-398 1083,-398 1083,-378 919,-378"/>
<polygon fill="none" stroke="#000000" points="919,-378 919,-398 1083,-398 1083,-378 919,-378"/>
<text text-anchor="start" x="982" y="-386.8" font-family="Verdana" font-weight="bold" font-size="9.00" fill="#ffffff">INode3</text>
<polygon fill="#b3e5fc" stroke="transparent" points="919,-358 919,-378 1083,-378 1083,-358 919,-358"/>
<polygon fill="none" stroke="#000000" points="919,-358 919,-378 1083,-378 1083,-358 919,-358"/>
<text text-anchor="start" x="926" y="-365.8" font-family="Verdana" font-size="9.00" fill="#000000">Append time: 08/09/2021 19:00</text>
<polygon fill="#e1f5fe" stroke="transparent" points="919,-338 919,-358 1083,-358 1083,-338 919,-338"/>
<polygon fill="none" stroke="#000000" points="919,-338 919,-358 1083,-358 1083,-338 919,-338"/>
<text text-anchor="start" x="924" y="-345.8" font-family="Verdana" font-size="9.00" fill="#000000">Creation time: 08/09/2021 19:00</text>
<polygon fill="#b3e5fc" stroke="transparent" points="919,-318 919,-338 1083,-338 1083,-318 919,-318"/>
<polygon fill="none" stroke="#000000" points="919,-318 919,-338 1083,-338 1083,-318 919,-318"/>
<text text-anchor="start" x="928.5" y="-325.8" font-family="Verdana" font-size="9.00" fill="#000000">Modify time: 08/09/2021 19:00</text>
<polygon fill="#e1f5fe" stroke="transparent" points="919,-298 919,-318 1083,-318 1083,-298 919,-298"/>
<polygon fill="none" stroke="#000000" points="919,-298 919,-318 1083,-318 1083,-298 919,-298"/>
<text text-anchor="start" x="966.5" y="-305.8" font-family="Verdana" font-size="9.00" fill="#000000">Type: Directory</text>
<polygon fill="#b3e5fc" stroke="transparent" points="919,-278 919,-298 1083,-298 1083,-278 919,-278"/>
<polygon fill="none" stroke="#000000" points="919,-278 919,-298 1083,-298 1083,-278 919,-278"/>
<text text-anchor="start" x="985.5" y="-285.8" font-family="Verdana" font-size="9.00" fill="#000000">Size: 0</text>
<polygon fill="#e1f5fe" stroke="transparent" points="919,-258 919,-278 1083,-278 1083,-258 919,-258"/>
<polygon fill="none" stroke="#000000" points="919,-258 919,-278 1083,-278 1083,-258 919,-258"/>
<text text-anchor="start" x="962" y="-265.8" font-family="Verdana" font-size="9.00" fill="#000000">Permissions: 664</text>
<polygon fill="#b3e5fc" stroke="transparent" points="919,-238 919,-258 1083,-258 1083,-238 919,-238"/>
<polygon fill="none" stroke="#000000" points="919,-238 919,-258 1083,-258 1083,-238 919,-238"/>
<text text-anchor="start" x="985.5" y="-245.8" font-family="Verdana" font-size="9.00" fill="#000000">UID: 4</text>
<polygon fill="#e1f5fe" stroke="transparent" points="919,-218 919,-238 1083,-238 1083,-218 919,-218"/>
<polygon fill="none" stroke="#000000" points="919,-218 919,-238 1083,-238 1083,-218 919,-218"/>
<text text-anchor="start" x="985.5" y="-225.8" font-family="Verdana" font-size="9.00" fill="#000000">GID: 2</text>
</g>
<!-- INode21125179_bloque_0_content_0&#45;&gt;INode21125311 -->
<g id="edge10" class="edge">
<title>INode21125179_bloque_0_content_0&#45;&gt;INode21125311</title>
<path fill="none" stroke="#000000" d="M882.248,-296.7572C890.7509,-297.5622 899.8109,-298.42 908.9899,-299.289"/>
<polygon fill="#000000" stroke="#000000" points="908.6908,-302.7762 918.9762,-300.2344 909.3507,-295.8074 908.6908,-302.7762"/>
</g>
<!-- INode21125443 -->
<g id="node13" class="node">
<title>INode21125443</title>
<polygon fill="#03a9f4" stroke="transparent" points="919,-180 919,-200 1083,-200 1083,-180 919,-180"/>
<polygon fill="none" stroke="#000000" points="919,-180 919,-200 1083,-200 1083,-180 919,-180"/>
<text text-anchor="start" x="982" y="-188.8" font-family="Verdana" font-weight="bold" font-size="9.00" fill="#ffffff">INode4</text>
<polygon fill="#b3e5fc" stroke="transparent" points="919,-160 919,-180 1083,-180 1083,-160 919,-160"/>
<polygon fill="none" stroke="#000000" points="919,-160 919,-180 1083,-180 1083,-160 919,-160"/>
<text text-anchor="start" x="926" y="-167.8" font-family="Verdana" font-size="9.00" fill="#000000">Append time: 08/09/2021 19:00</text>
<polygon fill="#e1f5fe" stroke="transparent" points="919,-140 919,-160 1083,-160 1083,-140 919,-140"/>
<polygon fill="none" stroke="#000000" points="919,-140 919,-160 1083,-160 1083,-140 919,-140"/>
<text text-anchor="start" x="924" y="-147.8" font-family="Verdana" font-size="9.00" fill="#000000">Creation time: 08/09/2021 19:00</text>
<polygon fill="#b3e5fc" stroke="transparent" points="919,-120 919,-140 1083,-140 1083,-120 919,-120"/>
<polygon fill="none" stroke="#000000" points="919,-120 919,-140 1083,-140 1083,-120 919,-120"/>
<text text-anchor="start" x="928.5" y="-127.8" font-family="Verdana" font-size="9.00" fill="#000000">Modify time: 08/09/2021 19:00</text>
<polygon fill="#e1f5fe" stroke="transparent" points="919,-100 919,-120 1083,-120 1083,-100 919,-100"/>
<polygon fill="none" stroke="#000000" points="919,-100 919,-120 1083,-120 1083,-100 919,-100"/>
<text text-anchor="start" x="966.5" y="-107.8" font-family="Verdana" font-size="9.00" fill="#000000">Type: Directory</text>
<polygon fill="#b3e5fc" stroke="transparent" points="919,-80 919,-100 1083,-100 1083,-80 919,-80"/>
<polygon fill="none" stroke="#000000" points="919,-80 919,-100 1083,-100 1083,-80 919,-80"/>
<text text-anchor="start" x="985.5" y="-87.8" font-family="Verdana" font-size="9.00" fill="#000000">Size: 0</text>
<polygon fill="#e1f5fe" stroke="transparent" points="919,-60 919,-80 1083,-80 1083,-60 919,-60"/>
<polygon fill="none" stroke="#000000" points="919,-60 919,-80 1083,-80 1083,-60 919,-60"/>
<text text-anchor="start" x="962" y="-67.8" font-family="Verdana" font-size="9.00" fill="#000000">Permissions: 777</text>
<polygon fill="#b3e5fc" stroke="transparent" points="919,-40 919,-60 1083,-60 1083,-40 919,-40"/>
<polygon fill="none" stroke="#000000" points="919,-40 919,-60 1083,-60 1083,-40 919,-40"/>
<text text-anchor="start" x="985.5" y="-47.8" font-family="Verdana" font-size="9.00" fill="#000000">UID: 4</text>
<polygon fill="#e1f5fe" stroke="transparent" points="919,-20 919,-40 1083,-40 1083,-20 919,-20"/>
<polygon fill="none" stroke="#000000" points="919,-20 919,-40 1083,-40 1083,-20 919,-20"/>
<text text-anchor="start" x="985.5" y="-27.8" font-family="Verdana" font-size="9.00" fill="#000000">GID: 2</text>
<polygon fill="#b3e5fc" stroke="transparent" points="919,0 919,-20 1083,-20 1083,0 919,0"/>
<polygon fill="none" stroke="#000000" points="919,0 919,-20 1083,-20 1083,0 919,0"/>
<text text-anchor="start" x="974.5" y="-7.8" font-family="Verdana" font-size="9.00" fill="#000000">Block 1: #5</text>
</g>
<!-- INode21125179_bloque_0_content_1&#45;&gt;INode21125443 -->
<g id="edge12" class="edge">
<title>INode21125179_bloque_0_content_1&#45;&gt;INode21125443</title>
<path fill="none" stroke="#000000" d="M882.248,-157.6193C891.0223,-153.362 900.3897,-148.8168 909.8691,-144.2173"/>
<polygon fill="#000000" stroke="#000000" points="911.5072,-147.3128 918.9762,-139.7985 908.4515,-141.015 911.5072,-147.3128"/>
</g>
<!-- INode21125443_bloque_0 -->
<g id="node14" class="node">
<title>INode21125443_bloque_0</title>
<polygon fill="#ff6f00" stroke="transparent" points="1124,-90 1124,-110 1171,-110 1171,-90 1124,-90"/>
<polygon fill="none" stroke="#000000" points="1124,-90 1124,-110 1171,-110 1171,-90 1124,-90"/>
<text text-anchor="start" x="1129" y="-98.8" font-family="Verdana" font-weight="bold" font-size="9.00" fill="#ffffff">Block 5</text>
</g>
<!-- INode21125443&#45;&gt;INode21125443_bloque_0 -->
<g id="edge13" class="edge">
<title>INode21125443&#45;&gt;INode21125443_bloque_0</title>
<path fill="none" stroke="#000000" d="M1083.387,-100C1092.5616,-100 1101.5352,-100 1109.7148,-100"/>
<polygon fill="#000000" stroke="#000000" points="1109.9607,-103.5001 1119.9607,-100 1109.9606,-96.5001 1109.9607,-103.5001"/>
</g>
<!-- INode21125443_bloque_0_content_0 -->
<g id="node15" class="node">
<title>INode21125443_bloque_0_content_0</title>
<polygon fill="#4caf50" stroke="transparent" points="1217,-110 1217,-130 1317,-130 1317,-110 1217,-110"/>
<polygon fill="none" stroke="#000000" points="1217,-110 1217,-130 1317,-130 1317,-110 1217,-110"/>
<text text-anchor="start" x="1222" y="-118.8" font-family="Verdana" font-weight="bold" font-size="9.00" fill="#ffffff">Directory Content</text>
<polygon fill="#a5d6a7" stroke="transparent" points="1217,-90 1217,-110 1317,-110 1317,-90 1217,-90"/>
<polygon fill="none" stroke="#000000" points="1217,-90 1217,-110 1317,-110 1317,-90 1217,-90"/>
<text text-anchor="start" x="1233.5" y="-97.8" font-family="Verdana" font-size="9.00" fill="#000000">Name: test.txt</text>
<polygon fill="#c8e6c9" stroke="transparent" points="1217,-70 1217,-90 1317,-90 1317,-70 1217,-70"/>
<polygon fill="none" stroke="#000000" points="1217,-70 1217,-90 1317,-90 1317,-70 1217,-70"/>
<text text-anchor="start" x="1247" y="-77.8" font-family="Verdana" font-size="9.00" fill="#000000">INode: 5</text>
</g>
<!-- INode21125443_bloque_0&#45;&gt;INode21125443_bloque_0_content_0 -->
<g id="edge14" class="edge">
<title>INode21125443_bloque_0&#45;&gt;INode21125443_bloque_0_content_0</title>
<path fill="none" stroke="#000000" d="M1174.2299,-100C1183.8655,-100 1195.1278,-100 1206.4175,-100"/>
<polygon fill="#000000" stroke="#000000" points="1206.7475,-103.5001 1216.7475,-100 1206.7475,-96.5001 1206.7475,-103.5001"/>
<text text-anchor="middle" x="1195.5" y="-103.8" font-family="Times,serif" font-size="14.00" fill="#000000">1</text>
</g>
<!-- INode21125575 -->
<g id="node16" class="node">
<title>INode21125575</title>
<polygon fill="#03a9f4" stroke="transparent" points="1354,-180 1354,-200 1518,-200 1518,-180 1354,-180"/>
<polygon fill="none" stroke="#000000" points="1354,-180 1354,-200 1518,-200 1518,-180 1354,-180"/>
<text text-anchor="start" x="1417" y="-188.8" font-family="Verdana" font-weight="bold" font-size="9.00" fill="#ffffff">INode5</text>
<polygon fill="#b3e5fc" stroke="transparent" points="1354,-160 1354,-180 1518,-180 1518,-160 1354,-160"/>
<polygon fill="none" stroke="#000000" points="1354,-160 1354,-180 1518,-180 1518,-160 1354,-160"/>
<text text-anchor="start" x="1361" y="-167.8" font-family="Verdana" font-size="9.00" fill="#000000">Append time: 08/09/2021 19:00</text>
<polygon fill="#e1f5fe" stroke="transparent" points="1354,-140 1354,-160 1518,-160 1518,-140 1354,-140"/>
<polygon fill="none" stroke="#000000" points="1354,-140 1354,-160 1518,-160 1518,-140 1354,-140"/>
<text text-anchor="start" x="1359" y="-147.8" font-family="Verdana" font-size="9.00" fill="#000000">Creation time: 08/09/2021 19:00</text>
<polygon fill="#b3e5fc" stroke="transparent" points="1354,-120 1354,-140 1518,-140 1518,-120 1354,-120"/>
<polygon fill="none" stroke="#000000" points="1354,-120 1354,-140 1518,-140 1518,-120 1354,-120"/>
<text text-anchor="start" x="1363.5" y="-127.8" font-family="Verdana" font-size="9.00" fill="#000000">Modify time: 08/09/2021 19:00</text>
<polygon fill="#e1f5fe" stroke="transparent" points="1354,-100 1354,-120 1518,-120 1518,-100 1354,-100"/>
<polygon fill="none" stroke="#000000" points="1354,-100 1354,-120 1518,-120 1518,-100 1354,-100"/>
<text text-anchor="start" x="1414.5" y="-107.8" font-family="Verdana" font-size="9.00" fill="#000000">Type: File</text>
<polygon fill="#b3e5fc" stroke="transparent" points="1354,-80 1354,-100 1518,-100 1518,-80 1354,-80"/>
<polygon fill="none" stroke="#000000" points="1354,-80 1354,-100 1518,-100 1518,-80 1354,-80"/>
<text text-anchor="start" x="1417.5" y="-87.8" font-family="Verdana" font-size="9.00" fill="#000000">Size: 39</text>
<polygon fill="#e1f5fe" stroke="transparent" points="1354,-60 1354,-80 1518,-80 1518,-60 1354,-60"/>
<polygon fill="none" stroke="#000000" points="1354,-60 1354,-80 1518,-80 1518,-60 1354,-60"/>
<text text-anchor="start" x="1397" y="-67.8" font-family="Verdana" font-size="9.00" fill="#000000">Permissions: 664</text>
<polygon fill="#b3e5fc" stroke="transparent" points="1354,-40 1354,-60 1518,-60 1518,-40 1354,-40"/>
<polygon fill="none" stroke="#000000" points="1354,-40 1354,-60 1518,-60 1518,-40 1354,-40"/>
<text text-anchor="start" x="1420.5" y="-47.8" font-family="Verdana" font-size="9.00" fill="#000000">UID: 4</text>
<polygon fill="#e1f5fe" stroke="transparent" points="1354,-20 1354,-40 1518,-40 1518,-20 1354,-20"/>
<polygon fill="none" stroke="#000000" points="1354,-20 1354,-40 1518,-40 1518,-20 1354,-20"/>
<text text-anchor="start" x="1420.5" y="-27.8" font-family="Verdana" font-size="9.00" fill="#000000">GID: 2</text>
<polygon fill="#b3e5fc" stroke="transparent" points="1354,0 1354,-20 1518,-20 1518,0 1354,0"/>
<polygon fill="none" stroke="#000000" points="1354,0 1354,-20 1518,-20 1518,0 1354,0"/>
<text text-anchor="start" x="1409.5" y="-7.8" font-family="Verdana" font-size="9.00" fill="#000000">Block 1: #6</text>
</g>
<!-- INode21125443_bloque_0_content_0&#45;&gt;INode21125575 -->
<g id="edge15" class="edge">
<title>INode21125443_bloque_0_content_0&#45;&gt;INode21125575</title>
<path fill="none" stroke="#000000" d="M1317.248,-100C1325.6605,-100 1334.6182,-100 1343.697,-100"/>
<polygon fill="#000000" stroke="#000000" points="1343.9763,-103.5001 1353.9762,-100 1343.9762,-96.5001 1343.9763,-103.5001"/>
</g>
<!-- INode21125575_bloque_0 -->
<g id="node17" class="node">
<title>INode21125575_bloque_0</title>
<polygon fill="#ffc107" stroke="transparent" points="1555.5,-105 1555.5,-125 1700.5,-125 1700.5,-105 1555.5,-105"/>
<polygon fill="none" stroke="#000000" points="1555.5,-105 1555.5,-125 1700.5,-125 1700.5,-105 1555.5,-105"/>
<text text-anchor="start" x="1609.5" y="-113.8" font-family="Verdana" font-weight="bold" font-size="9.00" fill="#ffffff">Block 6</text>
<polygon fill="#fff9c4" stroke="transparent" points="1555.5,-75 1555.5,-105 1700.5,-105 1700.5,-75 1555.5,-75"/>
<polygon fill="none" stroke="#000000" points="1555.5,-75 1555.5,-105 1700.5,-105 1700.5,-75 1555.5,-75"/>
<text text-anchor="start" x="1560.5" y="-92.8" font-family="Verdana" font-size="9.00" fill="#000000">Alex Daniel Santos Valenzuela</text>
<text text-anchor="start" x="1593" y="-82.8" font-family="Verdana" font-size="9.00" fill="#000000">201904117 &#160;&#160;&#160;&#160;</text>
</g>
<!-- INode21125575&#45;&gt;INode21125575_bloque_0 -->
<g id="edge16" class="edge">
<title>INode21125575&#45;&gt;INode21125575_bloque_0</title>
<path fill="none" stroke="#000000" d="M1518.0466,-100C1526.8753,-100 1535.8628,-100 1544.7003,-100"/>
<polygon fill="#000000" stroke="#000000" points="1544.9875,-103.5001 1554.9874,-100 1544.9874,-96.5001 1544.9875,-103.5001"/>
</g>
</g>
</svg>
